<svg width="33" height="32" viewBox="0 0 33 32" fill="none" xmlns="http://www.w3.org/2000/svg">
<path d="M25.8333 25.3335H7.16667V10.6668H25.8333M21.8333 1.3335V4.00016H11.1667V1.3335H8.5V4.00016H7.16667C5.68667 4.00016 4.5 5.18683 4.5 6.66683V25.3335C4.5 26.0407 4.78095 26.719 5.28105 27.2191C5.78115 27.7192 6.45942 28.0002 7.16667 28.0002H25.8333C26.5406 28.0002 27.2189 27.7192 27.719 27.2191C28.219 26.719 28.5 26.0407 28.5 25.3335V6.66683C28.5 5.95959 28.219 5.28131 27.719 4.78121C27.2189 4.28111 26.5406 4.00016 25.8333 4.00016H24.5V1.3335M23.1667 16.0002H16.5V22.6668H23.1667V16.0002Z" fill="black"/>
</svg>
