<svg width="32" height="32" viewBox="0 0 32 32" fill="none" xmlns="http://www.w3.org/2000/svg">
<path fill-rule="evenodd" clip-rule="evenodd" d="M26.5 13C26.5 16.1962 27.0763 18.875 28.1613 20.7412C28.3817 21.1224 28.498 21.5549 28.4985 21.9953C28.4989 22.4356 28.3835 22.8684 28.1638 23.25C27.9467 23.6318 27.6319 23.9489 27.2515 24.1686C26.8712 24.3883 26.4392 24.5027 26 24.5H21.4775C21.3535 25.867 20.7228 27.1383 19.7093 28.064C18.6957 28.9897 17.3727 29.503 16 29.503C14.6274 29.503 13.3043 28.9897 12.2908 28.064C11.2773 27.1383 10.6466 25.867 10.5225 24.5H6.00004C5.5602 24.5034 5.12742 24.3893 4.74639 24.1696C4.36536 23.9499 4.04989 23.6324 3.83253 23.25C3.6138 22.8678 3.49946 22.4348 3.50099 21.9945C3.50253 21.5541 3.61989 21.1219 3.84128 20.7412C4.92629 18.875 5.50004 16.1975 5.50004 13C5.50004 10.2152 6.60628 7.54451 8.57541 5.57538C10.5445 3.60625 13.2153 2.5 16 2.5C18.7848 2.5 21.4555 3.60625 23.4247 5.57538C25.3938 7.54451 26.5 10.2152 26.5 13ZM14.4186 25.9367C14.865 26.3011 15.4237 26.5001 16 26.5C16.5764 26.5001 17.135 26.3011 17.5815 25.9367C18.0279 25.5722 18.3348 25.0647 18.45 24.5H13.55C13.6653 25.0647 13.9721 25.5722 14.4186 25.9367Z" fill="#0099FF"/>
</svg>
