<svg width="29" height="28" viewBox="0 0 29 28" fill="none" xmlns="http://www.w3.org/2000/svg">
<path d="M0 23.6997C0 26.0554 1.885 27.8568 4.35 27.8568H24.65C27.115 27.8568 29 26.0554 29 23.6997V12.6143H0V23.6997ZM24.65 2.91444H21.75V1.52875C21.75 0.697341 21.17 0.143066 20.3 0.143066C19.43 0.143066 18.85 0.697341 18.85 1.52875V2.91444H10.15V1.52875C10.15 0.697341 9.57 0.143066 8.7 0.143066C7.83 0.143066 7.25 0.697341 7.25 1.52875V2.91444H4.35C1.885 2.91444 0 4.71583 0 7.0715V9.84288H29V7.0715C29 4.71583 27.115 2.91444 24.65 2.91444Z" fill="black"/>
</svg>
