<svg width="34" height="37" viewBox="0 0 34 37" fill="none" xmlns="http://www.w3.org/2000/svg">
<path d="M0.5 31.025C0.5 34.1275 2.65259 36.5 5.46751 36.5H28.6492C31.4641 36.5 33.6167 34.1275 33.6167 31.025V16.425H0.5V31.025ZM28.6492 3.65H25.3375V1.825C25.3375 0.73 24.6752 0 23.6817 0C22.6882 0 22.0259 0.73 22.0259 1.825V3.65H12.0909V1.825C12.0909 0.73 11.4285 0 10.435 0C9.44151 0 8.77918 0.73 8.77918 1.825V3.65H5.46751C2.65259 3.65 0.5 6.0225 0.5 9.125V12.775H33.6167V9.125C33.6167 6.0225 31.4641 3.65 28.6492 3.65Z" fill="black"/>
</svg>
