<svg width="25" height="25" viewBox="0 0 25 25" fill="none" xmlns="http://www.w3.org/2000/svg">
<path d="M24.5996 12.3398C24.5996 19.0277 19.1781 24.4492 12.4902 24.4492C5.80239 24.4492 0.380859 19.0277 0.380859 12.3398C0.380859 5.652 5.80239 0.230469 12.4902 0.230469C19.1781 0.230469 24.5996 5.652 24.5996 12.3398ZM11.0896 18.7517L20.0739 9.76729C20.379 9.46221 20.379 8.96753 20.0739 8.66245L18.9691 7.55762C18.664 7.25249 18.1693 7.25249 17.8642 7.55762L10.5371 14.8847L7.11626 11.4638C6.81118 11.1587 6.3165 11.1587 6.01138 11.4638L4.90654 12.5687C4.60146 12.8737 4.60146 13.3684 4.90654 13.6735L9.98467 18.7516C10.2898 19.0567 10.7844 19.0567 11.0896 18.7517Z" fill="black"/>
</svg>
