<svg width="24" height="24" viewBox="0 0 24 24" fill="none" xmlns="http://www.w3.org/2000/svg">
<path d="M0.616262 20.3221L8.79096 11.9893L0.616262 3.65638C-0.205421 2.81879 -0.205421 1.46577 0.616262 0.628188C1.43795 -0.209396 2.76528 -0.209396 3.58696 0.628188L13.2575 10.4859C14.0792 11.3235 14.0792 12.6765 13.2575 13.5141L3.58696 23.3718C2.76528 24.2094 1.43795 24.2094 0.616262 23.3718C-0.184352 22.5342 -0.205421 21.1597 0.616262 20.3221Z" fill="black"/>
<path d="M23.3837 20.3221L15.209 11.9893L23.3837 3.65638C24.2054 2.81879 24.2054 1.46577 23.3837 0.628188C22.5621 -0.209396 21.2347 -0.209396 20.413 0.628188L10.7425 10.4859C9.92078 11.3235 9.92078 12.6765 10.7425 13.5141L20.413 23.3718C21.2347 24.2094 22.5621 24.2094 23.3837 23.3718C24.1844 22.5342 24.2054 21.1597 23.3837 20.3221Z" fill="black"/>
</svg>
