<svg width="29" height="28" viewBox="0 0 29 28" fill="none" xmlns="http://www.w3.org/2000/svg">
<g id="Icons">
<path id="Vector" d="M6.10794 3.6C5.68149 3.6 5.2725 3.76857 4.97095 4.06863C4.66941 4.36869 4.5 4.77565 4.5 5.2V6.8C4.5 7.22435 4.66941 7.63131 4.97095 7.93137C5.2725 8.23143 5.68149 8.4 6.10794 8.4H6.91191V22.8C6.91191 23.6487 7.25073 24.4626 7.85382 25.0627C8.45691 25.6629 9.27489 26 10.1278 26H19.7754C20.6283 26 21.4463 25.6629 22.0494 25.0627C22.6525 24.4626 22.9913 23.6487 22.9913 22.8V8.4H23.7953C24.2217 8.4 24.6307 8.23143 24.9323 7.93137C25.2338 7.63131 25.4032 7.22435 25.4032 6.8V5.2C25.4032 4.77565 25.2338 4.36869 24.9323 4.06863C24.6307 3.76857 24.2217 3.6 23.7953 3.6H18.1675C18.1675 3.17565 17.9981 2.76869 17.6965 2.46863C17.395 2.16857 16.986 2 16.5596 2H13.3437C12.9172 2 12.5082 2.16857 12.2067 2.46863C11.9051 2.76869 11.7357 3.17565 11.7357 3.6H6.10794ZM10.9318 10C11.145 10 11.3495 10.0843 11.5003 10.2343C11.651 10.3843 11.7357 10.5878 11.7357 10.8V22C11.7357 22.2122 11.651 22.4157 11.5003 22.5657C11.3495 22.7157 11.145 22.8 10.9318 22.8C10.7185 22.8 10.514 22.7157 10.3633 22.5657C10.2125 22.4157 10.1278 22.2122 10.1278 22V10.8C10.1278 10.5878 10.2125 10.3843 10.3633 10.2343C10.514 10.0843 10.7185 10 10.9318 10ZM14.9516 10C15.1648 10 15.3693 10.0843 15.5201 10.2343C15.6709 10.3843 15.7556 10.5878 15.7556 10.8V22C15.7556 22.2122 15.6709 22.4157 15.5201 22.5657C15.3693 22.7157 15.1648 22.8 14.9516 22.8C14.7384 22.8 14.5339 22.7157 14.3831 22.5657C14.2323 22.4157 14.1476 22.2122 14.1476 22V10.8C14.1476 10.5878 14.2323 10.3843 14.3831 10.2343C14.5339 10.0843 14.7384 10 14.9516 10ZM19.7754 10.8V22C19.7754 22.2122 19.6907 22.4157 19.54 22.5657C19.3892 22.7157 19.1847 22.8 18.9715 22.8C18.7582 22.8 18.5537 22.7157 18.403 22.5657C18.2522 22.4157 18.1675 22.2122 18.1675 22V10.8C18.1675 10.5878 18.2522 10.3843 18.403 10.2343C18.5537 10.0843 18.7582 10 18.9715 10C19.1847 10 19.3892 10.0843 19.54 10.2343C19.6907 10.3843 19.7754 10.5878 19.7754 10.8Z" fill="black"/>
</g>
</svg>
