<svg width="18" height="19" viewBox="0 0 18 19" fill="none" xmlns="http://www.w3.org/2000/svg">
<path d="M9.79595 0.965701C9.48457 0.344766 8.51622 0.344766 8.20483 0.965701L0.105236 17.1062C0.0323252 17.2509 -0.00382097 17.413 0.000319655 17.5768C0.00446028 17.7406 0.0487465 17.9004 0.128863 18.0408C0.20898 18.1812 0.322195 18.2972 0.457476 18.3777C0.592758 18.4582 0.745492 18.5003 0.900797 18.5H17.1C17.2552 18.5003 17.4078 18.4582 17.543 18.3778C17.6782 18.2974 17.7913 18.1814 17.8714 18.0411C17.9514 17.9008 17.9956 17.741 17.9997 17.5774C18.0038 17.4137 17.9676 17.2517 17.8946 17.1072L9.79595 0.965701ZM9.90035 15.6517H8.10044V13.7528H9.90035V15.6517ZM8.10044 11.8539V7.10669H9.90035L9.90125 11.8539H8.10044Z" fill="#FF7070"/>
</svg>
