<svg width="46" height="46" viewBox="0 0 46 46" fill="none" xmlns="http://www.w3.org/2000/svg">
<rect x="0.5" y="0.5" width="44.0563" height="44.0563" rx="22.0281" fill="#0099FF"/>
<rect x="0.5" y="0.5" width="44.0563" height="44.0563" rx="22.0281" stroke="#0099FF"/>
<path d="M25.8803 15.853C24.4958 15.853 23.2836 16.4706 22.5279 17.5145C21.7723 16.4706 20.5601 15.853 19.1755 15.853C18.0734 15.8543 17.0168 16.309 16.2375 17.1174C15.4582 17.9258 15.0198 19.0218 15.0186 20.165C15.0186 25.0333 21.9775 28.9739 22.2738 29.1366C22.3519 29.1802 22.4392 29.203 22.5279 29.203C22.6166 29.203 22.7039 29.1802 22.782 29.1366C23.0784 28.9739 30.0373 25.0333 30.0373 20.165C30.0361 19.0218 29.5977 17.9258 28.8184 17.1174C28.0391 16.309 26.9824 15.8543 25.8803 15.853Z" fill="#FFD22F"/>
</svg>
