<svg width="32" height="33" viewBox="0 0 32 33" fill="none" xmlns="http://www.w3.org/2000/svg">
<g clip-path="url(#clip0_1271_11890)">
<path d="M28 16.4993V8.49935C28 7.03268 26.8 5.83268 25.3333 5.83268H24V4.49935C24 3.76602 23.4 3.16602 22.6667 3.16602C21.9333 3.16602 21.3333 3.76602 21.3333 4.49935V5.83268H10.6667V4.49935C10.6667 3.76602 10.0667 3.16602 9.33333 3.16602C8.6 3.16602 8 3.76602 8 4.49935V5.83268H6.66667C5.2 5.83268 4 7.03268 4 8.49935V27.166C4 28.6327 5.2 29.8327 6.66667 29.8327H16V27.166H6.66667V13.8327H25.3333V16.4993H28ZM20.1733 27.166C19.44 27.166 18.96 27.9127 19.2667 28.5793C19.7931 29.7475 20.6456 30.7389 21.7217 31.4343C22.7979 32.1296 24.052 32.4995 25.3333 32.4993C29.0133 32.4993 32 29.5127 32 25.8327C32 22.1527 29.0133 19.166 25.3333 19.166C23.52 19.166 21.8667 19.8993 20.6667 21.0727V20.166C20.6667 19.6193 20.2133 19.166 19.6667 19.166C19.12 19.166 18.6667 19.6193 18.6667 20.166V23.166C18.6667 23.8993 19.2667 24.4993 20 24.4993H23C23.5467 24.4993 24 24.046 24 23.4993C24 22.9527 23.5467 22.4993 23 22.4993H22.0667C22.9067 21.6727 24.0667 21.166 25.3333 21.166C27.9067 21.166 30 23.2593 30 25.8327C30 28.406 27.9067 30.4993 25.3333 30.4993C23.44 30.4993 21.8133 29.366 21.08 27.7527C21.0009 27.5784 20.8734 27.4304 20.7127 27.3264C20.552 27.2224 20.3648 27.1668 20.1733 27.166Z" fill="black"/>
</g>
<defs>
<clipPath id="clip0_1271_11890">
<rect width="32" height="32" fill="white" transform="translate(0 0.5)"/>
</clipPath>
</defs>
</svg>
