<svg width="32" height="32" viewBox="0 0 32 32" fill="none" xmlns="http://www.w3.org/2000/svg">
<g id="mingcute:link-2-fill">
<g id="Group">
<path id="Vector" d="M16.7904 31.0112L16.7757 31.0139L16.6811 31.0606L16.6544 31.0659L16.6357 31.0606L16.5411 31.0139C16.5269 31.0095 16.5162 31.0117 16.5091 31.0206L16.5037 31.0339L16.4811 31.6046L16.4877 31.6312L16.5011 31.6486L16.6397 31.7472L16.6597 31.7526L16.6757 31.7472L16.8144 31.6486L16.8304 31.6272L16.8357 31.6046L16.8131 31.0352C16.8095 31.021 16.802 31.013 16.7904 31.0112ZM17.1437 30.8606L17.1264 30.8632L16.8797 30.9872L16.8664 31.0006L16.8624 31.0152L16.8864 31.5886L16.8931 31.6046L16.9037 31.6139L17.1717 31.7379C17.1886 31.7423 17.2015 31.7388 17.2104 31.7272L17.2157 31.7086L17.1704 30.8899C17.166 30.8739 17.1571 30.8641 17.1437 30.8606ZM16.1904 30.8632C16.1845 30.8597 16.1775 30.8585 16.1708 30.86C16.1641 30.8615 16.1582 30.8655 16.1544 30.8712L16.1464 30.8899L16.1011 31.7086C16.102 31.7246 16.1095 31.7352 16.1237 31.7406L16.1437 31.7379L16.4117 31.6139L16.4251 31.6032L16.4304 31.5886L16.4531 31.0152L16.4491 30.9992L16.4357 30.9859L16.1904 30.8632Z" fill="black"/>
<path id="Vector_2" d="M21.1851 12.6998C21.5351 12.3498 22.0024 12.1421 22.4967 12.1167C22.991 12.0914 23.4771 12.2502 23.8611 12.5625L24.0131 12.6998L26.8424 15.5278C28.3294 17.0059 29.1766 19.0087 29.2019 21.1052C29.2271 23.2016 28.4283 25.2242 26.9774 26.7377C25.5265 28.2512 23.5394 29.1346 21.4437 29.1978C19.348 29.2611 17.3113 28.4991 15.7718 27.0758L15.5278 26.8425L12.6998 24.0131C12.3386 23.6503 12.1304 23.1629 12.1178 22.6511C12.1053 22.1394 12.2895 21.6423 12.6324 21.2622C12.9754 20.8822 13.451 20.6481 13.9614 20.6082C14.4717 20.5684 14.9779 20.7257 15.3758 21.0478L15.5278 21.1851L18.3571 24.0131C19.092 24.7426 20.0812 25.1587 21.1166 25.1738C22.152 25.1889 23.1529 24.8019 23.9088 24.0942C24.6647 23.3864 25.1167 22.4131 25.1698 21.379C25.2228 20.3449 24.8727 19.3304 24.1931 18.5491L24.0131 18.3571L21.1851 15.5278C20.8102 15.1527 20.5995 14.6441 20.5995 14.1138C20.5995 13.5835 20.8102 13.0748 21.1851 12.6998ZM11.7571 11.7571C12.1071 11.4072 12.5744 11.1994 13.0687 11.1741C13.563 11.1487 14.0491 11.3075 14.4331 11.6198L14.5851 11.7571L20.2424 17.4145C20.6061 17.7768 20.8165 18.2652 20.8301 18.7784C20.8436 19.2917 20.6593 19.7904 20.3152 20.1715C19.9712 20.5526 19.4938 20.7867 18.9818 20.8255C18.4699 20.8643 17.9626 20.7047 17.5651 20.3798L17.4131 20.2425L11.7571 14.5851C11.3822 14.2101 11.1715 13.7015 11.1715 13.1711C11.1715 12.6408 11.3822 12.1322 11.7571 11.7571ZM5.1571 5.15712C6.61608 3.69839 8.58221 2.85971 10.6449 2.81623C12.7076 2.77275 14.7073 3.52784 16.2264 4.92379L16.4718 5.15712L19.2984 7.98646C19.6596 8.34926 19.8678 8.83673 19.8804 9.34848C19.8929 9.86023 19.7087 10.3573 19.3658 10.7373C19.0228 11.1174 18.5472 11.3514 18.0368 11.3913C17.5265 11.4312 17.0203 11.2739 16.6224 10.9518L16.4704 10.8145L13.6438 7.98646C12.9098 7.25262 11.9193 6.83282 10.8815 6.81575C9.8437 6.79867 8.83991 7.18565 8.08216 7.89494C7.32441 8.60422 6.87203 9.58028 6.82058 10.6169C6.76913 11.6536 7.12264 12.6696 7.80643 13.4505L7.98643 13.6425L10.8131 16.4718C11.1742 16.8346 11.3825 17.3221 11.395 17.8338C11.4076 18.3456 11.2234 18.8426 10.8804 19.2227C10.5375 19.6027 10.0619 19.8368 9.55151 19.8767C9.04116 19.9166 8.53495 19.7593 8.1371 19.4371L7.98643 19.2998L5.1571 16.4718C4.41409 15.7289 3.82469 14.8469 3.42257 13.8762C3.02045 12.9055 2.81348 11.8651 2.81348 10.8145C2.81348 9.76377 3.02045 8.72337 3.42257 7.75268C3.82469 6.78199 4.41409 5.90001 5.1571 5.15712Z" fill="black"/>
</g>
</g>
</svg>
