<svg width="37" height="36" viewBox="0 0 37 36" fill="none" xmlns="http://www.w3.org/2000/svg">
<path d="M18.3519 14.2258C20.4811 14.2258 22.2037 15.9137 22.2037 18C22.2037 20.0863 20.4811 21.7742 18.3519 21.7742C16.2226 21.7742 14.5 20.0863 14.5 18C14.5 15.9137 16.2226 14.2258 18.3519 14.2258ZM14.5 8.77419C14.5 10.8605 16.2226 12.5484 18.3519 12.5484C20.4811 12.5484 22.2037 10.8605 22.2037 8.77419C22.2037 6.6879 20.4811 5 18.3519 5C16.2226 5 14.5 6.6879 14.5 8.77419ZM14.5 27.2258C14.5 29.3121 16.2226 31 18.3519 31C20.4811 31 22.2037 29.3121 22.2037 27.2258C22.2037 25.1395 20.4811 23.4516 18.3519 23.4516C16.2226 23.4516 14.5 25.1395 14.5 27.2258Z" fill="black"/>
</svg>
