<svg xmlns="http://www.w3.org/2000/svg" width="32" height="23" viewBox="0 0 32 23" fill="none">
<path d="M6.9488 0.525594C7.09752 0.669569 7.2155 0.840541 7.296 1.02874C7.37649 1.21693 7.41793 1.41866 7.41793 1.62238C7.41793 1.82611 7.37649 2.02783 7.296 2.21603C7.2155 2.40422 7.09752 2.5752 6.9488 2.71917C4.54859 5.04578 3.2002 8.20111 3.2002 11.4912C3.2002 14.7812 4.54859 17.9365 6.9488 20.2631C7.10157 20.4061 7.22343 20.5772 7.30726 20.7663C7.39109 20.9555 7.43522 21.1589 7.43706 21.3647C7.43891 21.5706 7.39844 21.7747 7.31801 21.9652C7.23758 22.1557 7.11881 22.3288 6.96863 22.4744C6.81844 22.6199 6.63985 22.735 6.44327 22.813C6.2467 22.8909 6.03607 22.9302 5.82368 22.9284C5.6113 22.9266 5.40141 22.8838 5.20626 22.8026C5.01111 22.7213 4.83461 22.6032 4.68705 22.4552C-1.56235 16.4 -1.56235 6.5808 4.68705 0.525594C4.98701 0.234971 5.39379 0.0717075 5.81793 0.0717075C6.24207 0.0717075 6.64884 0.234971 6.9488 0.525594ZM27.3141 0.525594C33.562 6.58235 33.562 16.4 27.3141 22.4552C27.0142 22.7461 26.6073 22.9096 26.183 22.9097C25.7587 22.9098 25.3517 22.7466 25.0516 22.4559C24.7515 22.1653 24.5828 21.7709 24.5826 21.3597C24.5825 20.9485 24.7509 20.554 25.0508 20.2631C27.451 17.9365 28.7994 14.7812 28.7994 11.4912C28.7994 8.20111 27.451 5.04578 25.0508 2.71917C24.7507 2.42829 24.582 2.03376 24.582 1.62238C24.582 1.21101 24.7507 0.816481 25.0508 0.525594C25.3509 0.234708 25.758 0.0712891 26.1825 0.0712891C26.6069 0.0712891 27.014 0.234708 27.3141 0.525594ZM11.6946 4.98096C11.9945 5.27167 12.163 5.66591 12.163 6.07697C12.163 6.48804 11.9945 6.88228 11.6946 7.17299C11.1123 7.73729 10.6504 8.40723 10.3353 9.14455C10.0201 9.88188 9.85791 10.6721 9.85791 11.4702C9.85791 12.2683 10.0201 13.0586 10.3353 13.7959C10.6504 14.5332 11.1123 15.2032 11.6946 15.7675C11.8431 15.9115 11.9609 16.0825 12.0413 16.2706C12.1216 16.4588 12.1629 16.6604 12.1628 16.864C12.1628 17.0676 12.1213 17.2693 12.0408 17.4574C11.9604 17.6454 11.8425 17.8163 11.6938 17.9603C11.5452 18.1042 11.3688 18.2184 11.1747 18.2962C10.9805 18.3741 10.7725 18.4141 10.5624 18.414C10.3523 18.414 10.1443 18.3738 9.9502 18.2958C9.75612 18.2178 9.5798 18.1035 9.43129 17.9595C7.65553 16.2384 6.65792 13.9042 6.65792 11.4702C6.65792 9.03629 7.65553 6.70204 9.43129 4.98096C9.57984 4.83682 9.75625 4.72248 9.95043 4.64447C10.1446 4.56645 10.3528 4.5263 10.563 4.5263C10.7732 4.5263 10.9813 4.56645 11.1755 4.64447C11.3697 4.72248 11.5461 4.83682 11.6946 4.98096ZM22.8242 4.98096C24.6 6.70204 25.5976 9.03629 25.5976 11.4702C25.5976 13.9042 24.6 16.2384 22.8242 17.9595C22.5226 18.2419 22.1185 18.3981 21.6991 18.3946C21.2797 18.3911 20.8785 18.228 20.582 17.9406C20.2854 17.6532 20.1172 17.2644 20.1135 16.8579C20.1099 16.4514 20.2711 16.0598 20.5625 15.7675C21.1448 15.2032 21.6067 14.5332 21.9219 13.7959C22.237 13.0586 22.3992 12.2683 22.3992 11.4702C22.3992 10.6721 22.237 9.88188 21.9219 9.14455C21.6067 8.40723 21.1448 7.73729 20.5625 7.17299C20.2711 6.88061 20.1099 6.48902 20.1135 6.08255C20.1172 5.67609 20.2854 5.28727 20.582 4.99984C20.8785 4.71242 21.2797 4.54938 21.6991 4.54585C22.1185 4.54232 22.5226 4.69857 22.8242 4.98096ZM16.1286 9.2751C16.7649 9.2751 17.3752 9.52009 17.8251 9.95618C18.2751 10.3923 18.5279 10.9837 18.5279 11.6004C18.5279 12.2172 18.2751 12.8086 17.8251 13.2447C17.3752 13.6808 16.7649 13.9258 16.1286 13.9258C15.4922 13.9258 14.882 13.6808 14.432 13.2447C13.982 12.8086 13.7293 12.2172 13.7293 11.6004C13.7293 10.9837 13.982 10.3923 14.432 9.95618C14.882 9.52009 15.4922 9.2751 16.1286 9.2751Z" fill="black"/>
</svg>