<svg width="23" height="30" viewBox="0 0 23 30" fill="none" xmlns="http://www.w3.org/2000/svg">
<path d="M19.0033 12.4523L11.4162 5.18674L3.82906 12.4523C3.06643 13.1826 1.8345 13.1826 1.07188 12.4523C0.309252 11.722 0.309252 10.5423 1.07188 9.81197L10.0474 1.21691C10.81 0.486615 12.0419 0.486615 12.8046 1.21691L21.7801 9.81197C22.5427 10.5423 22.5427 11.722 21.7801 12.4523C21.0175 13.1638 19.766 13.1826 19.0033 12.4523Z" fill="#8D8D8D"/>
<path d="M3.84871 17.5477L11.4358 24.8133L19.023 17.5477C19.7856 16.8174 21.0175 16.8174 21.7802 17.5477C22.5428 18.278 22.5428 19.4577 21.7802 20.188L12.8047 28.7831C12.042 29.5134 10.8101 29.5134 10.0475 28.7831L1.07197 20.188C0.309344 19.4577 0.309344 18.278 1.07197 17.5477C1.83459 16.8362 3.08608 16.8174 3.84871 17.5477Z" fill="#8D8D8D"/>
</svg>
