<svg width="438" height="307" viewBox="0 0 438 307" fill="none" xmlns="http://www.w3.org/2000/svg">
<path d="M12.8613 28.42C8.24133 28.42 4.76133 25.72 4.76133 21.22V7H9.56133V20.8C9.56133 22.39 10.3113 23.74 12.8613 23.74C15.4113 23.74 16.1613 22.39 16.1613 20.8V7H20.9613V21.22C20.9613 25.72 17.4813 28.42 12.8613 28.42ZM33.243 12.58C37.173 12.58 40.413 16.03 40.413 20.5C40.413 24.97 37.173 28.42 33.243 28.42C31.233 28.42 29.763 27.73 28.773 26.59V34H24.273V13H28.773V14.41C29.763 13.27 31.233 12.58 33.243 12.58ZM32.343 24.16C34.413 24.16 35.913 22.75 35.913 20.5C35.913 18.25 34.413 16.84 32.343 16.84C30.273 16.84 28.773 18.25 28.773 20.5C28.773 22.75 30.273 24.16 32.343 24.16ZM42.9645 28V6.1H47.4645V28H42.9645ZM57.9574 28.42C53.5474 28.42 50.0074 24.97 50.0074 20.5C50.0074 16.03 53.5474 12.58 57.9574 12.58C62.3674 12.58 65.9074 16.03 65.9074 20.5C65.9074 24.97 62.3674 28.42 57.9574 28.42ZM57.9574 24.04C59.9074 24.04 61.4074 22.63 61.4074 20.5C61.4074 18.37 59.9074 16.96 57.9574 16.96C56.0074 16.96 54.5074 18.37 54.5074 20.5C54.5074 22.63 56.0074 24.04 57.9574 24.04ZM79.3427 13H83.8427V28H79.3427V26.59C78.3527 27.73 76.8827 28.42 74.8727 28.42C70.9427 28.42 67.7027 24.97 67.7027 20.5C67.7027 16.03 70.9427 12.58 74.8727 12.58C76.8827 12.58 78.3527 13.27 79.3427 14.41V13ZM75.7727 24.16C77.8427 24.16 79.3427 22.75 79.3427 20.5C79.3427 18.25 77.8427 16.84 75.7727 16.84C73.7027 16.84 72.2027 18.25 72.2027 20.5C72.2027 22.75 73.7027 24.16 75.7727 24.16ZM98.0341 7H102.534V28H98.0341V26.59C97.0441 27.73 95.5741 28.42 93.5641 28.42C89.6341 28.42 86.3941 24.97 86.3941 20.5C86.3941 16.03 89.6341 12.58 93.5641 12.58C95.5741 12.58 97.0441 13.27 98.0341 14.41V7ZM94.4641 24.16C96.5341 24.16 98.0341 22.75 98.0341 20.5C98.0341 18.25 96.5341 16.84 94.4641 16.84C92.3941 16.84 90.8941 18.25 90.8941 20.5C90.8941 22.75 92.3941 24.16 94.4641 24.16ZM121.436 7C125.576 7 128.786 10.21 128.786 14.2C128.786 18.19 125.576 21.4 121.436 21.4H118.286V28H113.486V7H121.436ZM121.436 16.9C122.906 16.9 123.986 15.73 123.986 14.2C123.986 12.67 122.906 11.5 121.436 11.5H118.286V16.9H121.436ZM135.238 15.67C135.838 13.66 137.848 12.7 139.738 12.7V17.8C137.878 17.5 135.238 18.25 135.238 21.22V28H130.738V13H135.238V15.67ZM148.602 28.42C144.192 28.42 140.652 24.97 140.652 20.5C140.652 16.03 144.192 12.58 148.602 12.58C153.012 12.58 156.552 16.03 156.552 20.5C156.552 24.97 153.012 28.42 148.602 28.42ZM148.602 24.04C150.552 24.04 152.052 22.63 152.052 20.5C152.052 18.37 150.552 16.96 148.602 16.96C146.652 16.96 145.152 18.37 145.152 20.5C145.152 22.63 146.652 24.04 148.602 24.04ZM161.358 11.68C159.888 11.68 158.658 10.45 158.658 8.98C158.658 7.51 159.888 6.28 161.358 6.28C162.828 6.28 164.058 7.51 164.058 8.98C164.058 10.45 162.828 11.68 161.358 11.68ZM159.108 28V13H163.608V28C163.608 32.68 161.448 34.69 156.708 34.42V30.1C158.358 30.19 159.108 29.59 159.108 28ZM170.94 22.3C171.51 23.86 172.89 24.4 174.54 24.4C175.77 24.4 176.82 23.92 177.42 23.26L181.02 25.33C179.55 27.37 177.33 28.42 174.48 28.42C169.35 28.42 166.17 24.97 166.17 20.5C166.17 16.03 169.41 12.58 174.15 12.58C178.53 12.58 181.77 15.97 181.77 20.5C181.77 21.13 181.71 21.73 181.59 22.3H170.94ZM170.85 18.94H177.3C176.82 17.2 175.47 16.57 174.12 16.57C172.41 16.57 171.27 17.41 170.85 18.94ZM191.375 28.42C186.815 28.42 183.425 24.97 183.425 20.5C183.425 16.03 186.815 12.58 191.375 12.58C194.285 12.58 196.865 14.11 198.155 16.42L194.225 18.7C193.715 17.65 192.635 17.02 191.315 17.02C189.365 17.02 187.925 18.43 187.925 20.5C187.925 22.57 189.365 23.98 191.315 23.98C192.635 23.98 193.745 23.35 194.225 22.3L198.155 24.55C196.865 26.89 194.315 28.42 191.375 28.42ZM208.756 17.32H205.666V22.63C205.666 23.92 206.776 24.04 208.756 23.92V28C202.876 28.6 201.166 26.83 201.166 22.63V17.32H198.766V13H201.166V10.15L205.666 8.8V13H208.756V17.32ZM227.347 10.9C225.667 10.75 224.557 11.26 224.557 13H227.347V17.32H224.557V28H220.057V17.32H218.047V13H220.057C220.057 8.8 222.367 6.28 227.347 6.58V10.9ZM231.25 11.68C229.78 11.68 228.55 10.45 228.55 8.98C228.55 7.51 229.78 6.28 231.25 6.28C232.72 6.28 233.95 7.51 233.95 8.98C233.95 10.45 232.72 11.68 231.25 11.68ZM229 28V13H233.5V28H229ZM236.793 28V6.1H241.293V28H236.793ZM248.606 22.3C249.176 23.86 250.556 24.4 252.206 24.4C253.436 24.4 254.486 23.92 255.086 23.26L258.686 25.33C257.216 27.37 254.996 28.42 252.146 28.42C247.016 28.42 243.836 24.97 243.836 20.5C243.836 16.03 247.076 12.58 251.816 12.58C256.196 12.58 259.436 15.97 259.436 20.5C259.436 21.13 259.376 21.73 259.256 22.3H248.606ZM248.516 18.94H254.966C254.486 17.2 253.136 16.57 251.786 16.57C250.076 16.57 248.936 17.41 248.516 18.94ZM265.662 17.38C265.662 19.09 273.042 17.95 273.042 23.5C273.042 26.95 270.042 28.42 266.802 28.42C263.802 28.42 261.522 27.28 260.352 24.85L264.252 22.63C264.642 23.77 265.482 24.4 266.802 24.4C267.882 24.4 268.422 24.07 268.422 23.47C268.422 21.82 261.042 22.69 261.042 17.5C261.042 14.23 263.802 12.58 266.922 12.58C269.352 12.58 271.512 13.66 272.772 15.79L268.932 17.86C268.512 17.08 267.912 16.54 266.922 16.54C266.142 16.54 265.662 16.84 265.662 17.38ZM283.377 9.76V12.4L280.677 12.13L282.327 14.2L280.137 15.58L278.877 13.03L277.617 15.58L275.427 14.2L277.077 12.13L274.377 12.4V9.76L277.077 10.03L275.427 7.96L277.617 6.58L278.877 9.13L280.137 6.58L282.327 7.96L280.677 10.03L283.377 9.76Z" fill="black"/>
<mask id="path-2-outside-1_1597_7124" maskUnits="userSpaceOnUse" x="0" y="48" width="438" height="186" fill="black">
<rect fill="white" y="48" width="438" height="186"/>
<path d="M3 51H433V229H3V51Z"/>
</mask>
<path d="M3 51V49.5H1.5V51H3ZM433 51H435.5V49.5H433V51ZM433 229V231.5H435.5V229H433ZM3 229H1.5V231.5H3V229ZM1.5 51V51.9889H4.5V51H1.5ZM1.5 53.9667V55.9444H4.5V53.9667H1.5ZM1.5 57.9222V59.9H4.5V57.9222H1.5ZM1.5 61.8778V63.8556H4.5V61.8778H1.5ZM1.5 65.8333V67.8111H4.5V65.8333H1.5ZM1.5 69.7889V71.7667H4.5V69.7889H1.5ZM1.5 73.7444V75.7222H4.5V73.7444H1.5ZM1.5 77.7V79.6778H4.5V77.7H1.5ZM1.5 81.6556V83.6333H4.5V81.6556H1.5ZM1.5 85.6111V87.5889H4.5V85.6111H1.5ZM1.5 89.5667V91.5444H4.5V89.5667H1.5ZM1.5 93.5222V95.5H4.5V93.5222H1.5ZM1.5 97.4778V99.4556H4.5V97.4778H1.5ZM1.5 101.433V103.411H4.5V101.433H1.5ZM1.5 105.389V107.367H4.5V105.389H1.5ZM1.5 109.344V111.322H4.5V109.344H1.5ZM1.5 113.3V115.278H4.5V113.3H1.5ZM1.5 117.256V119.233H4.5V117.256H1.5ZM1.5 121.211V123.189H4.5V121.211H1.5ZM1.5 125.167V127.144H4.5V125.167H1.5ZM1.5 129.122V131.1H4.5V129.122H1.5ZM1.5 133.078V135.056H4.5V133.078H1.5ZM1.5 137.033V139.011H4.5V137.033H1.5ZM1.5 140.989V142.967H4.5V140.989H1.5ZM1.5 144.944V146.922H4.5V144.944H1.5ZM1.5 148.9V150.878H4.5V148.9H1.5ZM1.5 152.856V154.833H4.5V152.856H1.5ZM1.5 156.811V158.789H4.5V156.811H1.5ZM1.5 160.767V162.744H4.5V160.767H1.5ZM1.5 164.722V166.7H4.5V164.722H1.5ZM1.5 168.678V170.656H4.5V168.678H1.5ZM1.5 172.633V174.611H4.5V172.633H1.5ZM1.5 176.589V178.567H4.5V176.589H1.5ZM1.5 180.544V182.522H4.5V180.544H1.5ZM1.5 184.5V186.478H4.5V184.5H1.5ZM1.5 188.456V190.433H4.5V188.456H1.5ZM1.5 192.411V194.389H4.5V192.411H1.5ZM1.5 196.367V198.344H4.5V196.367H1.5ZM1.5 200.322V202.3H4.5V200.322H1.5ZM1.5 204.278V206.256H4.5V204.278H1.5ZM1.5 208.233V210.211H4.5V208.233H1.5ZM1.5 212.189V214.167H4.5V212.189H1.5ZM1.5 216.145V218.122H4.5V216.145H1.5ZM1.5 220.1V222.078H4.5V220.1H1.5ZM1.5 224.056V226.033H4.5V224.056H1.5ZM1.5 228.011V229H4.5V228.011H1.5ZM3 231.5H3.99537V226.5H3V231.5ZM5.98611 231.5H7.97685V226.5H5.98611V231.5ZM9.96759 231.5H11.9583V226.5H9.96759V231.5ZM13.9491 231.5H15.9398V226.5H13.9491V231.5ZM17.9306 231.5H19.9213V226.5H17.9306V231.5ZM21.912 231.5H23.9028V226.5H21.912V231.5ZM25.8935 231.5H27.8843V226.5H25.8935V231.5ZM29.875 231.5H31.8657V226.5H29.875V231.5ZM33.8565 231.5H35.8472V226.5H33.8565V231.5ZM37.838 231.5H39.8287V226.5H37.838V231.5ZM41.8195 231.5H43.8102V226.5H41.8195V231.5ZM45.8009 231.5H47.7917V226.5H45.8009V231.5ZM49.7824 231.5H51.7732V226.5H49.7824V231.5ZM53.7639 231.5H55.7546V226.5H53.7639V231.5ZM57.7454 231.5H59.7361V226.5H57.7454V231.5ZM61.7269 231.5H63.7176V226.5H61.7269V231.5ZM65.7084 231.5H67.6991V226.5H65.7084V231.5ZM69.6898 231.5H71.6806V226.5H69.6898V231.5ZM73.6713 231.5H75.662V226.5H73.6713V231.5ZM77.6528 231.5H79.6435V226.5H77.6528V231.5ZM81.6343 231.5H83.625V226.5H81.6343V231.5ZM85.6157 231.5H87.6065V226.5H85.6157V231.5ZM89.5972 231.5H91.588V226.5H89.5972V231.5ZM93.5787 231.5H95.5694V226.5H93.5787V231.5ZM97.5602 231.5H99.5509V226.5H97.5602V231.5ZM101.542 231.5H103.532V226.5H101.542V231.5ZM105.523 231.5H107.514V226.5H105.523V231.5ZM109.505 231.5H111.495V226.5H109.505V231.5ZM113.486 231.5H115.477V226.5H113.486V231.5ZM117.468 231.5H119.458V226.5H117.468V231.5ZM121.449 231.5H123.44V226.5H121.449V231.5ZM125.43 231.5H127.421V226.5H125.43V231.5ZM129.412 231.5H131.403V226.5H129.412V231.5ZM133.393 231.5H135.384V226.5H133.393V231.5ZM137.375 231.5H139.366V226.5H137.375V231.5ZM141.356 231.5H143.347V226.5H141.356V231.5ZM145.338 231.5H147.329V226.5H145.338V231.5ZM149.319 231.5H151.31V226.5H149.319V231.5ZM153.301 231.5H155.292V226.5H153.301V231.5ZM157.282 231.5H159.273V226.5H157.282V231.5ZM161.264 231.5H163.255V226.5H161.264V231.5ZM165.245 231.5H167.236V226.5H165.245V231.5ZM169.227 231.5H171.217V226.5H169.227V231.5ZM173.208 231.5H175.199V226.5H173.208V231.5ZM177.19 231.5H179.18V226.5H177.19V231.5ZM181.171 231.5H183.162V226.5H181.171V231.5ZM185.153 231.5H187.143V226.5H185.153V231.5ZM189.134 231.5H191.125V226.5H189.134V231.5ZM193.116 231.5H195.106V226.5H193.116V231.5ZM197.097 231.5H199.088V226.5H197.097V231.5ZM201.079 231.5H203.069V226.5H201.079V231.5ZM205.06 231.5H207.051V226.5H205.06V231.5ZM209.041 231.5H211.032V226.5H209.041V231.5ZM213.023 231.5H215.014V226.5H213.023V231.5ZM217.004 231.5H218.995V226.5H217.004V231.5ZM220.986 231.5H222.977V226.5H220.986V231.5ZM224.967 231.5H226.958V226.5H224.967V231.5ZM228.949 231.5H230.94V226.5H228.949V231.5ZM232.93 231.5H234.921V226.5H232.93V231.5ZM236.912 231.5H238.903V226.5H236.912V231.5ZM240.893 231.5H242.884V226.5H240.893V231.5ZM244.875 231.5H246.866V226.5H244.875V231.5ZM248.856 231.5H250.847V226.5H248.856V231.5ZM252.838 231.5H254.828V226.5H252.838V231.5ZM256.819 231.5H258.81V226.5H256.819V231.5ZM260.801 231.5H262.791V226.5H260.801V231.5ZM264.782 231.5H266.773V226.5H264.782V231.5ZM268.764 231.5H270.754V226.5H268.764V231.5ZM272.745 231.5H274.736V226.5H272.745V231.5ZM276.727 231.5H278.717V226.5H276.727V231.5ZM280.708 231.5H282.699V226.5H280.708V231.5ZM284.69 231.5H286.68V226.5H284.69V231.5ZM288.671 231.5H290.662V226.5H288.671V231.5ZM292.653 231.5H294.643V226.5H292.653V231.5ZM296.634 231.5H298.625V226.5H296.634V231.5ZM300.616 231.5H302.607V226.5H300.616V231.5ZM304.597 231.5H306.588V226.5H304.597V231.5ZM308.579 231.5H310.57V226.5H308.579V231.5ZM312.56 231.5H314.551V226.5H312.56V231.5ZM316.542 231.5H318.533V226.5H316.542V231.5ZM320.523 231.5H322.514V226.5H320.523V231.5ZM324.505 231.5H326.496V226.5H324.505V231.5ZM328.486 231.5H330.477V226.5H328.486V231.5ZM332.468 231.5H334.459V226.5H332.468V231.5ZM336.449 231.5H338.44V226.5H336.449V231.5ZM340.431 231.5H342.422V226.5H340.431V231.5ZM344.412 231.5H346.403V226.5H344.412V231.5ZM348.394 231.5H350.385V226.5H348.394V231.5ZM352.375 231.5H354.366V226.5H352.375V231.5ZM356.357 231.5H358.348V226.5H356.357V231.5ZM360.338 231.5H362.329V226.5H360.338V231.5ZM364.32 231.5H366.311V226.5H364.32V231.5ZM368.301 231.5H370.292V226.5H368.301V231.5ZM372.283 231.5H374.274V226.5H372.283V231.5ZM376.264 231.5H378.255V226.5H376.264V231.5ZM380.246 231.5H382.237V226.5H380.246V231.5ZM384.227 231.5H386.218V226.5H384.227V231.5ZM388.209 231.5H390.2V226.5H388.209V231.5ZM392.19 231.5H394.181V226.5H392.19V231.5ZM396.172 231.5H398.163V226.5H396.172V231.5ZM400.153 231.5H402.144V226.5H400.153V231.5ZM404.135 231.5H406.126V226.5H404.135V231.5ZM408.116 231.5H410.107V226.5H408.116V231.5ZM412.098 231.5H414.089V226.5H412.098V231.5ZM416.079 231.5H418.07V226.5H416.079V231.5ZM420.061 231.5H422.052V226.5H420.061V231.5ZM424.042 231.5H426.033V226.5H424.042V231.5ZM428.024 231.5H430.015V226.5H428.024V231.5ZM432.005 231.5H433V226.5H432.005V231.5ZM435.5 229V228.011H430.5V229H435.5ZM435.5 226.033V224.056H430.5V226.033H435.5ZM435.5 222.078V220.1H430.5V222.078H435.5ZM435.5 218.122V216.144H430.5V218.122H435.5ZM435.5 214.167V212.189H430.5V214.167H435.5ZM435.5 210.211V208.233H430.5V210.211H435.5ZM435.5 206.256V204.278H430.5V206.256H435.5ZM435.5 202.3V200.322H430.5V202.3H435.5ZM435.5 198.344V196.367H430.5V198.344H435.5ZM435.5 194.389V192.411H430.5V194.389H435.5ZM435.5 190.433V188.456H430.5V190.433H435.5ZM435.5 186.478V184.5H430.5V186.478H435.5ZM435.5 182.522V180.544H430.5V182.522H435.5ZM435.5 178.567V176.589H430.5V178.567H435.5ZM435.5 174.611V172.633H430.5V174.611H435.5ZM435.5 170.656V168.678H430.5V170.656H435.5ZM435.5 166.7V164.722H430.5V166.7H435.5ZM435.5 162.744V160.767H430.5V162.744H435.5ZM435.5 158.789V156.811H430.5V158.789H435.5ZM435.5 154.833V152.856H430.5V154.833H435.5ZM435.5 150.878V148.9H430.5V150.878H435.5ZM435.5 146.922V144.944H430.5V146.922H435.5ZM435.5 142.967V140.989H430.5V142.967H435.5ZM435.5 139.011V137.033H430.5V139.011H435.5ZM435.5 135.056V133.078H430.5V135.056H435.5ZM435.5 131.1V129.122H430.5V131.1H435.5ZM435.5 127.144V125.167H430.5V127.144H435.5ZM435.5 123.189V121.211H430.5V123.189H435.5ZM435.5 119.233V117.256H430.5V119.233H435.5ZM435.5 115.278V113.3H430.5V115.278H435.5ZM435.5 111.322V109.344H430.5V111.322H435.5ZM435.5 107.367V105.389H430.5V107.367H435.5ZM435.5 103.411V101.433H430.5V103.411H435.5ZM435.5 99.4556V97.4778H430.5V99.4556H435.5ZM435.5 95.5V93.5222H430.5V95.5H435.5ZM435.5 91.5445V89.5667H430.5V91.5445H435.5ZM435.5 87.5889V85.6111H430.5V87.5889H435.5ZM435.5 83.6333V81.6556H430.5V83.6333H435.5ZM435.5 79.6778V77.7H430.5V79.6778H435.5ZM435.5 75.7222V73.7444H430.5V75.7222H435.5ZM435.5 71.7666V69.7889H430.5V71.7666H435.5ZM435.5 67.8111V65.8333H430.5V67.8111H435.5ZM435.5 63.8555V61.8777H430.5V63.8555H435.5ZM435.5 59.8999V57.9221H430.5V59.8999H435.5ZM435.5 55.9444V53.9666H430.5V55.9444H435.5ZM435.5 51.9888V51H430.5V51.9888H435.5ZM433 49.5H432.005V52.5H433V49.5ZM430.014 49.5H428.023V52.5H430.014V49.5ZM426.032 49.5H424.042V52.5H426.032V49.5ZM422.051 49.5H420.06V52.5H422.051V49.5ZM418.069 49.5H416.079V52.5H418.069V49.5ZM414.088 49.5H412.097V52.5H414.088V49.5ZM410.106 49.5H408.116V52.5H410.106V49.5ZM406.125 49.5H404.134V52.5H406.125V49.5ZM402.144 49.5H400.153V52.5H402.144V49.5ZM398.162 49.5H396.171V52.5H398.162V49.5ZM394.181 49.5H392.19V52.5H394.181V49.5ZM390.199 49.5H388.208V52.5H390.199V49.5ZM386.218 49.5H384.227V52.5H386.218V49.5ZM382.236 49.5H380.245V52.5H382.236V49.5ZM378.255 49.5H376.264V52.5H378.255V49.5ZM374.273 49.5H372.282V52.5H374.273V49.5ZM370.292 49.5H368.301V52.5H370.292V49.5ZM366.31 49.5H364.319V52.5H366.31V49.5ZM362.329 49.5H360.338V52.5H362.329V49.5ZM358.347 49.5H356.356V52.5H358.347V49.5ZM354.366 49.5H352.375V52.5H354.366V49.5ZM350.384 49.5H348.394V52.5H350.384V49.5ZM346.403 49.5H344.412V52.5H346.403V49.5ZM342.421 49.5H340.431V52.5H342.421V49.5ZM338.44 49.5H336.449V52.5H338.44V49.5ZM334.458 49.5H332.468V52.5H334.458V49.5ZM330.477 49.5H328.486V52.5H330.477V49.5ZM326.495 49.5H324.505V52.5H326.495V49.5ZM322.514 49.5H320.523V52.5H322.514V49.5ZM318.532 49.5H316.542V52.5H318.532V49.5ZM314.551 49.5H312.56V52.5H314.551V49.5ZM310.569 49.5H308.579V52.5H310.569V49.5ZM306.588 49.5H304.597V52.5H306.588V49.5ZM302.607 49.5H300.616V52.5H302.607V49.5ZM298.625 49.5H296.634V52.5H298.625V49.5ZM294.644 49.5H292.653V52.5H294.644V49.5ZM290.662 49.5H288.671V52.5H290.662V49.5ZM286.681 49.5H284.69V52.5H286.681V49.5ZM282.699 49.5H280.708V52.5H282.699V49.5ZM278.718 49.5H276.727V52.5H278.718V49.5ZM274.736 49.5H272.745V52.5H274.736V49.5ZM270.755 49.5H268.764V52.5H270.755V49.5ZM266.773 49.5H264.783V52.5H266.773V49.5ZM262.792 49.5H260.801V52.5H262.792V49.5ZM258.81 49.5H256.82V52.5H258.81V49.5ZM254.829 49.5H252.838V52.5H254.829V49.5ZM250.847 49.5H248.857V52.5H250.847V49.5ZM246.866 49.5H244.875V52.5H246.866V49.5ZM242.884 49.5H240.894V52.5H242.884V49.5ZM238.903 49.5H236.912V52.5H238.903V49.5ZM234.921 49.5H232.931V52.5H234.921V49.5ZM230.94 49.5H228.949V52.5H230.94V49.5ZM226.959 49.5H224.968V52.5H226.959V49.5ZM222.977 49.5H220.986V52.5H222.977V49.5ZM218.996 49.5H217.005V52.5H218.996V49.5ZM215.014 49.5H213.023V52.5H215.014V49.5ZM211.033 49.5H209.042V52.5H211.033V49.5ZM207.051 49.5H205.06V52.5H207.051V49.5ZM203.07 49.5H201.079V52.5H203.07V49.5ZM199.088 49.5H197.097V52.5H199.088V49.5ZM195.107 49.5H193.116V52.5H195.107V49.5ZM191.125 49.5H189.134V52.5H191.125V49.5ZM187.144 49.5H185.153V52.5H187.144V49.5ZM183.162 49.5H181.172V52.5H183.162V49.5ZM179.181 49.5H177.19V52.5H179.181V49.5ZM175.199 49.5H173.209V52.5H175.199V49.5ZM171.218 49.5H169.227V52.5H171.218V49.5ZM167.236 49.5H165.246V52.5H167.236V49.5ZM163.255 49.5H161.264V52.5H163.255V49.5ZM159.273 49.5H157.283V52.5H159.273V49.5ZM155.292 49.5H153.301V52.5H155.292V49.5ZM151.31 49.5H149.32V52.5H151.31V49.5ZM147.329 49.5H145.338V52.5H147.329V49.5ZM143.347 49.5H141.357V52.5H143.347V49.5ZM139.366 49.5H137.375V52.5H139.366V49.5ZM135.384 49.5H133.393V52.5H135.384V49.5ZM131.403 49.5H129.412V52.5H131.403V49.5ZM127.421 49.5H125.43V52.5H127.421V49.5ZM123.44 49.5H121.449V52.5H123.44V49.5ZM119.458 49.5H117.467V52.5H119.458V49.5ZM115.477 49.5H113.486V52.5H115.477V49.5ZM111.495 49.5H109.504V52.5H111.495V49.5ZM107.514 49.5H105.523V52.5H107.514V49.5ZM103.532 49.5H101.541V52.5H103.532V49.5ZM99.5507 49.5H97.5599V52.5H99.5507V49.5ZM95.5692 49.5H93.5784V52.5H95.5692V49.5ZM91.5877 49.5H89.5969V52.5H91.5877V49.5ZM87.6062 49.5H85.6154V52.5H87.6062V49.5ZM83.6247 49.5H81.6339V52.5H83.6247V49.5ZM79.6432 49.5H77.6524V52.5H79.6432V49.5ZM75.6617 49.5H73.6709V52.5H75.6617V49.5ZM71.6801 49.5H69.6894V52.5H71.6801V49.5ZM67.6986 49.5H65.7079V52.5H67.6986V49.5ZM63.7171 49.5H61.7264V52.5H63.7171V49.5ZM59.7356 49.5H57.7449V52.5H59.7356V49.5ZM55.7541 49.5H53.7634V52.5H55.7541V49.5ZM51.7726 49.5H49.7819V52.5H51.7726V49.5ZM47.7911 49.5H45.8004V52.5H47.7911V49.5ZM43.8096 49.5H41.8188V52.5H43.8096V49.5ZM39.8281 49.5H37.8373V52.5H39.8281V49.5ZM35.8466 49.5H33.8558V52.5H35.8466V49.5ZM31.8651 49.5H29.8743V52.5H31.8651V49.5ZM27.8836 49.5H25.8928V52.5H27.8836V49.5ZM23.9021 49.5H21.9113V52.5H23.9021V49.5ZM19.9206 49.5H17.9298V52.5H19.9206V49.5ZM15.939 49.5H13.9483V52.5H15.939V49.5ZM11.9576 49.5H9.9668V52.5H11.9576V49.5ZM7.97604 49.5H5.98528V52.5H7.97604V49.5ZM3.99455 49.5H3V52.5H3.99455V49.5ZM3 51V48H0V51H3ZM433 51H438V48H433V51ZM433 229V234H438V229H433ZM3 229H0V234H3V229ZM0 51V51.9889H6V51H0ZM0 53.9667V55.9444H6V53.9667H0ZM0 57.9222V59.9H6V57.9222H0ZM0 61.8778V63.8556H6V61.8778H0ZM0 65.8333V67.8111H6V65.8333H0ZM0 69.7889V71.7667H6V69.7889H0ZM0 73.7444V75.7222H6V73.7444H0ZM0 77.7V79.6778H6V77.7H0ZM0 81.6556V83.6333H6V81.6556H0ZM0 85.6111V87.5889H6V85.6111H0ZM0 89.5667V91.5444H6V89.5667H0ZM0 93.5222V95.5H6V93.5222H0ZM0 97.4778V99.4556H6V97.4778H0ZM0 101.433V103.411H6V101.433H0ZM0 105.389V107.367H6V105.389H0ZM0 109.344V111.322H6V109.344H0ZM0 113.3V115.278H6V113.3H0ZM0 117.256V119.233H6V117.256H0ZM0 121.211V123.189H6V121.211H0ZM0 125.167V127.144H6V125.167H0ZM0 129.122V131.1H6V129.122H0ZM0 133.078V135.056H6V133.078H0ZM0 137.033V139.011H6V137.033H0ZM0 140.989V142.967H6V140.989H0ZM0 144.944V146.922H6V144.944H0ZM0 148.9V150.878H6V148.9H0ZM0 152.856V154.833H6V152.856H0ZM0 156.811V158.789H6V156.811H0ZM0 160.767V162.744H6V160.767H0ZM0 164.722V166.7H6V164.722H0ZM0 168.678V170.656H6V168.678H0ZM0 172.633V174.611H6V172.633H0ZM0 176.589V178.567H6V176.589H0ZM0 180.544V182.522H6V180.544H0ZM0 184.5V186.478H6V184.5H0ZM0 188.456V190.433H6V188.456H0ZM0 192.411V194.389H6V192.411H0ZM0 196.367V198.344H6V196.367H0ZM0 200.322V202.3H6V200.322H0ZM0 204.278V206.256H6V204.278H0ZM0 208.233V210.211H6V208.233H0ZM0 212.189V214.167H6V212.189H0ZM0 216.145V218.122H6V216.145H0ZM0 220.1V222.078H6V220.1H0ZM0 224.056V226.033H6V224.056H0ZM0 228.011V229H6V228.011H0ZM3 234H3.99537V224H3V234ZM5.98611 234H7.97685V224H5.98611V234ZM9.96759 234H11.9583V224H9.96759V234ZM13.9491 234H15.9398V224H13.9491V234ZM17.9306 234H19.9213V224H17.9306V234ZM21.912 234H23.9028V224H21.912V234ZM25.8935 234H27.8843V224H25.8935V234ZM29.875 234H31.8657V224H29.875V234ZM33.8565 234H35.8472V224H33.8565V234ZM37.838 234H39.8287V224H37.838V234ZM41.8195 234H43.8102V224H41.8195V234ZM45.8009 234H47.7917V224H45.8009V234ZM49.7824 234H51.7732V224H49.7824V234ZM53.7639 234H55.7546V224H53.7639V234ZM57.7454 234H59.7361V224H57.7454V234ZM61.7269 234H63.7176V224H61.7269V234ZM65.7084 234H67.6991V224H65.7084V234ZM69.6898 234H71.6806V224H69.6898V234ZM73.6713 234H75.662V224H73.6713V234ZM77.6528 234H79.6435V224H77.6528V234ZM81.6343 234H83.625V224H81.6343V234ZM85.6157 234H87.6065V224H85.6157V234ZM89.5972 234H91.588V224H89.5972V234ZM93.5787 234H95.5694V224H93.5787V234ZM97.5602 234H99.5509V224H97.5602V234ZM101.542 234H103.532V224H101.542V234ZM105.523 234H107.514V224H105.523V234ZM109.505 234H111.495V224H109.505V234ZM113.486 234H115.477V224H113.486V234ZM117.468 234H119.458V224H117.468V234ZM121.449 234H123.44V224H121.449V234ZM125.43 234H127.421V224H125.43V234ZM129.412 234H131.403V224H129.412V234ZM133.393 234H135.384V224H133.393V234ZM137.375 234H139.366V224H137.375V234ZM141.356 234H143.347V224H141.356V234ZM145.338 234H147.329V224H145.338V234ZM149.319 234H151.31V224H149.319V234ZM153.301 234H155.292V224H153.301V234ZM157.282 234H159.273V224H157.282V234ZM161.264 234H163.255V224H161.264V234ZM165.245 234H167.236V224H165.245V234ZM169.227 234H171.217V224H169.227V234ZM173.208 234H175.199V224H173.208V234ZM177.19 234H179.18V224H177.19V234ZM181.171 234H183.162V224H181.171V234ZM185.153 234H187.143V224H185.153V234ZM189.134 234H191.125V224H189.134V234ZM193.116 234H195.106V224H193.116V234ZM197.097 234H199.088V224H197.097V234ZM201.079 234H203.069V224H201.079V234ZM205.06 234H207.051V224H205.06V234ZM209.041 234H211.032V224H209.041V234ZM213.023 234H215.014V224H213.023V234ZM217.004 234H218.995V224H217.004V234ZM220.986 234H222.977V224H220.986V234ZM224.967 234H226.958V224H224.967V234ZM228.949 234H230.94V224H228.949V234ZM232.93 234H234.921V224H232.93V234ZM236.912 234H238.903V224H236.912V234ZM240.893 234H242.884V224H240.893V234ZM244.875 234H246.866V224H244.875V234ZM248.856 234H250.847V224H248.856V234ZM252.838 234H254.828V224H252.838V234ZM256.819 234H258.81V224H256.819V234ZM260.801 234H262.791V224H260.801V234ZM264.782 234H266.773V224H264.782V234ZM268.764 234H270.754V224H268.764V234ZM272.745 234H274.736V224H272.745V234ZM276.727 234H278.717V224H276.727V234ZM280.708 234H282.699V224H280.708V234ZM284.69 234H286.68V224H284.69V234ZM288.671 234H290.662V224H288.671V234ZM292.653 234H294.643V224H292.653V234ZM296.634 234H298.625V224H296.634V234ZM300.616 234H302.607V224H300.616V234ZM304.597 234H306.588V224H304.597V234ZM308.579 234H310.57V224H308.579V234ZM312.56 234H314.551V224H312.56V234ZM316.542 234H318.533V224H316.542V234ZM320.523 234H322.514V224H320.523V234ZM324.505 234H326.496V224H324.505V234ZM328.486 234H330.477V224H328.486V234ZM332.468 234H334.459V224H332.468V234ZM336.449 234H338.44V224H336.449V234ZM340.431 234H342.422V224H340.431V234ZM344.412 234H346.403V224H344.412V234ZM348.394 234H350.385V224H348.394V234ZM352.375 234H354.366V224H352.375V234ZM356.357 234H358.348V224H356.357V234ZM360.338 234H362.329V224H360.338V234ZM364.32 234H366.311V224H364.32V234ZM368.301 234H370.292V224H368.301V234ZM372.283 234H374.274V224H372.283V234ZM376.264 234H378.255V224H376.264V234ZM380.246 234H382.237V224H380.246V234ZM384.227 234H386.218V224H384.227V234ZM388.209 234H390.2V224H388.209V234ZM392.19 234H394.181V224H392.19V234ZM396.172 234H398.163V224H396.172V234ZM400.153 234H402.144V224H400.153V234ZM404.135 234H406.126V224H404.135V234ZM408.116 234H410.107V224H408.116V234ZM412.098 234H414.089V224H412.098V234ZM416.079 234H418.07V224H416.079V234ZM420.061 234H422.052V224H420.061V234ZM424.042 234H426.033V224H424.042V234ZM428.024 234H430.015V224H428.024V234ZM432.005 234H433V224H432.005V234ZM438 229V228.011H428V229H438ZM438 226.033V224.056H428V226.033H438ZM438 222.078V220.1H428V222.078H438ZM438 218.122V216.144H428V218.122H438ZM438 214.167V212.189H428V214.167H438ZM438 210.211V208.233H428V210.211H438ZM438 206.256V204.278H428V206.256H438ZM438 202.3V200.322H428V202.3H438ZM438 198.344V196.367H428V198.344H438ZM438 194.389V192.411H428V194.389H438ZM438 190.433V188.456H428V190.433H438ZM438 186.478V184.5H428V186.478H438ZM438 182.522V180.544H428V182.522H438ZM438 178.567V176.589H428V178.567H438ZM438 174.611V172.633H428V174.611H438ZM438 170.656V168.678H428V170.656H438ZM438 166.7V164.722H428V166.7H438ZM438 162.744V160.767H428V162.744H438ZM438 158.789V156.811H428V158.789H438ZM438 154.833V152.856H428V154.833H438ZM438 150.878V148.9H428V150.878H438ZM438 146.922V144.944H428V146.922H438ZM438 142.967V140.989H428V142.967H438ZM438 139.011V137.033H428V139.011H438ZM438 135.056V133.078H428V135.056H438ZM438 131.1V129.122H428V131.1H438ZM438 127.144V125.167H428V127.144H438ZM438 123.189V121.211H428V123.189H438ZM438 119.233V117.256H428V119.233H438ZM438 115.278V113.3H428V115.278H438ZM438 111.322V109.344H428V111.322H438ZM438 107.367V105.389H428V107.367H438ZM438 103.411V101.433H428V103.411H438ZM438 99.4556V97.4778H428V99.4556H438ZM438 95.5V93.5222H428V95.5H438ZM438 91.5445V89.5667H428V91.5445H438ZM438 87.5889V85.6111H428V87.5889H438ZM438 83.6333V81.6556H428V83.6333H438ZM438 79.6778V77.7H428V79.6778H438ZM438 75.7222V73.7444H428V75.7222H438ZM438 71.7666V69.7889H428V71.7666H438ZM438 67.8111V65.8333H428V67.8111H438ZM438 63.8555V61.8777H428V63.8555H438ZM438 59.8999V57.9221H428V59.8999H438ZM438 55.9444V53.9666H428V55.9444H438ZM438 51.9888V51H428V51.9888H438ZM433 48H432.005V54H433V48ZM430.014 48H428.023V54H430.014V48ZM426.032 48H424.042V54H426.032V48ZM422.051 48H420.06V54H422.051V48ZM418.069 48H416.079V54H418.069V48ZM414.088 48H412.097V54H414.088V48ZM410.106 48H408.116V54H410.106V48ZM406.125 48H404.134V54H406.125V48ZM402.144 48H400.153V54H402.144V48ZM398.162 48H396.171V54H398.162V48ZM394.181 48H392.19V54H394.181V48ZM390.199 48H388.208V54H390.199V48ZM386.218 48H384.227V54H386.218V48ZM382.236 48H380.245V54H382.236V48ZM378.255 48H376.264V54H378.255V48ZM374.273 48H372.282V54H374.273V48ZM370.292 48H368.301V54H370.292V48ZM366.31 48H364.319V54H366.31V48ZM362.329 48H360.338V54H362.329V48ZM358.347 48H356.356V54H358.347V48ZM354.366 48H352.375V54H354.366V48ZM350.384 48H348.394V54H350.384V48ZM346.403 48H344.412V54H346.403V48ZM342.421 48H340.431V54H342.421V48ZM338.44 48H336.449V54H338.44V48ZM334.458 48H332.468V54H334.458V48ZM330.477 48H328.486V54H330.477V48ZM326.495 48H324.505V54H326.495V48ZM322.514 48H320.523V54H322.514V48ZM318.532 48H316.542V54H318.532V48ZM314.551 48H312.56V54H314.551V48ZM310.569 48H308.579V54H310.569V48ZM306.588 48H304.597V54H306.588V48ZM302.607 48H300.616V54H302.607V48ZM298.625 48H296.634V54H298.625V48ZM294.644 48H292.653V54H294.644V48ZM290.662 48H288.671V54H290.662V48ZM286.681 48H284.69V54H286.681V48ZM282.699 48H280.708V54H282.699V48ZM278.718 48H276.727V54H278.718V48ZM274.736 48H272.745V54H274.736V48ZM270.755 48H268.764V54H270.755V48ZM266.773 48H264.783V54H266.773V48ZM262.792 48H260.801V54H262.792V48ZM258.81 48H256.82V54H258.81V48ZM254.829 48H252.838V54H254.829V48ZM250.847 48H248.857V54H250.847V48ZM246.866 48H244.875V54H246.866V48ZM242.884 48H240.894V54H242.884V48ZM238.903 48H236.912V54H238.903V48ZM234.921 48H232.931V54H234.921V48ZM230.94 48H228.949V54H230.94V48ZM226.959 48H224.968V54H226.959V48ZM222.977 48H220.986V54H222.977V48ZM218.996 48H217.005V54H218.996V48ZM215.014 48H213.023V54H215.014V48ZM211.033 48H209.042V54H211.033V48ZM207.051 48H205.06V54H207.051V48ZM203.07 48H201.079V54H203.07V48ZM199.088 48H197.097V54H199.088V48ZM195.107 48H193.116V54H195.107V48ZM191.125 48H189.134V54H191.125V48ZM187.144 48H185.153V54H187.144V48ZM183.162 48H181.172V54H183.162V48ZM179.181 48H177.19V54H179.181V48ZM175.199 48H173.209V54H175.199V48ZM171.218 48H169.227V54H171.218V48ZM167.236 48H165.246V54H167.236V48ZM163.255 48H161.264V54H163.255V48ZM159.273 48H157.283V54H159.273V48ZM155.292 48H153.301V54H155.292V48ZM151.31 48H149.32V54H151.31V48ZM147.329 48H145.338V54H147.329V48ZM143.347 48H141.357V54H143.347V48ZM139.366 48H137.375V54H139.366V48ZM135.384 48H133.393V54H135.384V48ZM131.403 48H129.412V54H131.403V48ZM127.421 48H125.43V54H127.421V48ZM123.44 48H121.449V54H123.44V48ZM119.458 48H117.467V54H119.458V48ZM115.477 48H113.486V54H115.477V48ZM111.495 48H109.504V54H111.495V48ZM107.514 48H105.523V54H107.514V48ZM103.532 48H101.541V54H103.532V48ZM99.5507 48H97.5599V54H99.5507V48ZM95.5692 48H93.5784V54H95.5692V48ZM91.5877 48H89.5969V54H91.5877V48ZM87.6062 48H85.6154V54H87.6062V48ZM83.6247 48H81.6339V54H83.6247V48ZM79.6432 48H77.6524V54H79.6432V48ZM75.6617 48H73.6709V54H75.6617V48ZM71.6801 48H69.6894V54H71.6801V48ZM67.6986 48H65.7079V54H67.6986V48ZM63.7171 48H61.7264V54H63.7171V48ZM59.7356 48H57.7449V54H59.7356V48ZM55.7541 48H53.7634V54H55.7541V48ZM51.7726 48H49.7819V54H51.7726V48ZM47.7911 48H45.8004V54H47.7911V48ZM43.8096 48H41.8188V54H43.8096V48ZM39.8281 48H37.8373V54H39.8281V48ZM35.8466 48H33.8558V54H35.8466V48ZM31.8651 48H29.8743V54H31.8651V48ZM27.8836 48H25.8928V54H27.8836V48ZM23.9021 48H21.9113V54H23.9021V48ZM19.9206 48H17.9298V54H19.9206V48ZM15.939 48H13.9483V54H15.939V48ZM11.9576 48H9.9668V54H11.9576V48ZM7.97604 48H5.98528V54H7.97604V48ZM3.99455 48H3V54H3.99455V48Z" fill="black" mask="url(#path-2-outside-1_1597_7124)"/>
<path d="M223 85H203C200.25 85 198.025 87.25 198.025 90L198 130C198 132.75 200.225 135 202.975 135H233C235.75 135 238 132.75 238 130V100L223 85ZM233 130H203V90H220.5V102.5H233V130ZM208 117.525L211.525 121.05L215.5 117.1V127.5H220.5V117.1L224.475 121.075L228 117.525L218.025 107.5L208 117.525Z" fill="black"/>
<path d="M42.45 172.5H46.2V190H42.45V188.825C41.625 189.775 40.4 190.35 38.725 190.35C35.45 190.35 32.75 187.475 32.75 183.75C32.75 180.025 35.45 177.15 38.725 177.15C40.4 177.15 41.625 177.725 42.45 178.675V172.5ZM39.475 186.8C41.2 186.8 42.45 185.625 42.45 183.75C42.45 181.875 41.2 180.7 39.475 180.7C37.75 180.7 36.5 181.875 36.5 183.75C36.5 185.625 37.75 186.8 39.475 186.8ZM52.7012 179.725C53.2012 178.05 54.8762 177.25 56.4512 177.25V181.5C54.9012 181.25 52.7012 181.875 52.7012 184.35V190H48.9512V177.5H52.7012V179.725ZM66.9129 177.5H70.6629V190H66.9129V188.825C66.0879 189.775 64.8629 190.35 63.1879 190.35C59.9129 190.35 57.2129 187.475 57.2129 183.75C57.2129 180.025 59.9129 177.15 63.1879 177.15C64.8629 177.15 66.0879 177.725 66.9129 178.675V177.5ZM63.9379 186.8C65.6629 186.8 66.9129 185.625 66.9129 183.75C66.9129 181.875 65.6629 180.7 63.9379 180.7C62.2129 180.7 60.9629 181.875 60.9629 183.75C60.9629 185.625 62.2129 186.8 63.9379 186.8ZM82.5891 177.5H86.2391V189.375C86.2391 193.575 82.9641 195.35 79.6391 195.35C77.0391 195.35 74.8641 194.375 73.7141 192.325L76.9141 190.475C77.3891 191.35 78.1141 192.05 79.7641 192.05C81.5141 192.05 82.5891 191.15 82.5891 189.375V188.225C81.7641 189.25 80.5641 189.85 78.9391 189.85C75.3891 189.85 72.7891 186.95 72.7891 183.5C72.7891 180.05 75.3891 177.15 78.9391 177.15C80.5641 177.15 81.7641 177.75 82.5891 178.775V177.5ZM79.5641 186.4C81.3391 186.4 82.5891 185.225 82.5891 183.5C82.5891 181.775 81.3391 180.6 79.5641 180.6C77.7891 180.6 76.5391 181.775 76.5391 183.5C76.5391 185.225 77.7891 186.4 79.5641 186.4ZM104.315 177.5H108.065V190H104.315V188.825C103.49 189.775 102.265 190.35 100.59 190.35C97.3152 190.35 94.6152 187.475 94.6152 183.75C94.6152 180.025 97.3152 177.15 100.59 177.15C102.265 177.15 103.49 177.725 104.315 178.675V177.5ZM101.34 186.8C103.065 186.8 104.315 185.625 104.315 183.75C104.315 181.875 103.065 180.7 101.34 180.7C99.6152 180.7 98.3652 181.875 98.3652 183.75C98.3652 185.625 99.6152 186.8 101.34 186.8ZM118.141 177.15C120.666 177.15 122.816 178.95 122.816 182.325V190H119.066V182.875C119.066 181.325 118.091 180.6 116.891 180.6C115.516 180.6 114.566 181.4 114.566 183.175V190H110.816V177.5H114.566V178.675C115.241 177.75 116.491 177.15 118.141 177.15ZM134.467 172.5H138.217V190H134.467V188.825C133.642 189.775 132.417 190.35 130.742 190.35C127.467 190.35 124.767 187.475 124.767 183.75C124.767 180.025 127.467 177.15 130.742 177.15C132.417 177.15 133.642 177.725 134.467 178.675V172.5ZM131.492 186.8C133.217 186.8 134.467 185.625 134.467 183.75C134.467 181.875 133.217 180.7 131.492 180.7C129.767 180.7 128.517 181.875 128.517 183.75C128.517 185.625 129.767 186.8 131.492 186.8ZM156.293 172.5H160.043V190H156.293V188.825C155.468 189.775 154.243 190.35 152.568 190.35C149.293 190.35 146.593 187.475 146.593 183.75C146.593 180.025 149.293 177.15 152.568 177.15C154.243 177.15 155.468 177.725 156.293 178.675V172.5ZM153.318 186.8C155.043 186.8 156.293 185.625 156.293 183.75C156.293 181.875 155.043 180.7 153.318 180.7C151.593 180.7 150.343 181.875 150.343 183.75C150.343 185.625 151.593 186.8 153.318 186.8ZM166.544 179.725C167.044 178.05 168.719 177.25 170.294 177.25V181.5C168.744 181.25 166.544 181.875 166.544 184.35V190H162.794V177.5H166.544V179.725ZM177.681 190.35C174.006 190.35 171.056 187.475 171.056 183.75C171.056 180.025 174.006 177.15 177.681 177.15C181.356 177.15 184.306 180.025 184.306 183.75C184.306 187.475 181.356 190.35 177.681 190.35ZM177.681 186.7C179.306 186.7 180.556 185.525 180.556 183.75C180.556 181.975 179.306 180.8 177.681 180.8C176.056 180.8 174.806 181.975 174.806 183.75C174.806 185.525 176.056 186.7 177.681 186.7ZM193.902 177.15C197.177 177.15 199.877 180.025 199.877 183.75C199.877 187.475 197.177 190.35 193.902 190.35C192.227 190.35 191.002 189.775 190.177 188.825V195H186.427V177.5H190.177V178.675C191.002 177.725 192.227 177.15 193.902 177.15ZM193.152 186.8C194.877 186.8 196.127 185.625 196.127 183.75C196.127 181.875 194.877 180.7 193.152 180.7C191.427 180.7 190.177 181.875 190.177 183.75C190.177 185.625 191.427 186.8 193.152 186.8ZM215.128 175.75C213.728 175.625 212.803 176.05 212.803 177.5H215.128V181.1H212.803V190H209.053V181.1H207.378V177.5H209.053C209.053 174 210.978 171.9 215.128 172.15V175.75ZM218.38 176.4C217.155 176.4 216.13 175.375 216.13 174.15C216.13 172.925 217.155 171.9 218.38 171.9C219.605 171.9 220.63 172.925 220.63 174.15C220.63 175.375 219.605 176.4 218.38 176.4ZM216.505 190V177.5H220.255V190H216.505ZM222.999 190V171.75H226.749V190H222.999ZM232.843 185.25C233.318 186.55 234.468 187 235.843 187C236.868 187 237.743 186.6 238.243 186.05L241.243 187.775C240.018 189.475 238.168 190.35 235.793 190.35C231.518 190.35 228.868 187.475 228.868 183.75C228.868 180.025 231.568 177.15 235.518 177.15C239.168 177.15 241.868 179.975 241.868 183.75C241.868 184.275 241.818 184.775 241.718 185.25H232.843ZM232.768 182.45H238.143C237.743 181 236.618 180.475 235.493 180.475C234.068 180.475 233.118 181.175 232.768 182.45ZM256.245 190.35C252.57 190.35 249.62 187.475 249.62 183.75C249.62 180.025 252.57 177.15 256.245 177.15C259.92 177.15 262.87 180.025 262.87 183.75C262.87 187.475 259.92 190.35 256.245 190.35ZM256.245 186.7C257.87 186.7 259.12 185.525 259.12 183.75C259.12 181.975 257.87 180.8 256.245 180.8C254.62 180.8 253.37 181.975 253.37 183.75C253.37 185.525 254.62 186.7 256.245 186.7ZM268.741 179.725C269.241 178.05 270.916 177.25 272.491 177.25V181.5C270.941 181.25 268.741 181.875 268.741 184.35V190H264.991V177.5H268.741V179.725Z" fill="black"/>
<path d="M286.494 190.35C282.694 190.35 279.869 187.475 279.869 183.75C279.869 180.025 282.694 177.15 286.494 177.15C288.919 177.15 291.069 178.425 292.144 180.35L288.869 182.25C288.444 181.375 287.544 180.85 286.444 180.85C284.819 180.85 283.619 182.025 283.619 183.75C283.619 185.475 284.819 186.65 286.444 186.65C287.544 186.65 288.469 186.125 288.869 185.25L292.144 187.125C291.069 189.075 288.944 190.35 286.494 190.35ZM300.978 177.15C303.503 177.15 305.653 178.95 305.653 182.325V190H301.903V182.875C301.903 181.325 300.928 180.6 299.728 180.6C298.353 180.6 297.403 181.4 297.403 183.175V190H293.653V172.5H297.403V178.675C298.078 177.75 299.328 177.15 300.978 177.15ZM314.229 190.35C310.554 190.35 307.604 187.475 307.604 183.75C307.604 180.025 310.554 177.15 314.229 177.15C317.904 177.15 320.854 180.025 320.854 183.75C320.854 187.475 317.904 190.35 314.229 190.35ZM314.229 186.7C315.854 186.7 317.104 185.525 317.104 183.75C317.104 181.975 315.854 180.8 314.229 180.8C312.604 180.8 311.354 181.975 311.354 183.75C311.354 185.525 312.604 186.7 314.229 186.7ZM328.975 190.35C325.3 190.35 322.35 187.475 322.35 183.75C322.35 180.025 325.3 177.15 328.975 177.15C332.65 177.15 335.6 180.025 335.6 183.75C335.6 187.475 332.65 190.35 328.975 190.35ZM328.975 186.7C330.6 186.7 331.85 185.525 331.85 183.75C331.85 181.975 330.6 180.8 328.975 180.8C327.35 180.8 326.1 181.975 326.1 183.75C326.1 185.525 327.35 186.7 328.975 186.7ZM341.027 181.15C341.027 182.575 347.177 181.625 347.177 186.25C347.177 189.125 344.677 190.35 341.977 190.35C339.477 190.35 337.577 189.4 336.602 187.375L339.852 185.525C340.177 186.475 340.877 187 341.977 187C342.877 187 343.327 186.725 343.327 186.225C343.327 184.85 337.177 185.575 337.177 181.25C337.177 178.525 339.477 177.15 342.077 177.15C344.102 177.15 345.902 178.05 346.952 179.825L343.752 181.55C343.402 180.9 342.902 180.45 342.077 180.45C341.427 180.45 341.027 180.7 341.027 181.15ZM352.277 185.25C352.752 186.55 353.902 187 355.277 187C356.302 187 357.177 186.6 357.677 186.05L360.677 187.775C359.452 189.475 357.602 190.35 355.227 190.35C350.952 190.35 348.302 187.475 348.302 183.75C348.302 180.025 351.002 177.15 354.952 177.15C358.602 177.15 361.302 179.975 361.302 183.75C361.302 184.275 361.252 184.775 361.152 185.25H352.277ZM352.202 182.45H357.577C357.177 181 356.052 180.475 354.927 180.475C353.502 180.475 352.552 181.175 352.202 182.45ZM376.554 175.75C375.154 175.625 374.229 176.05 374.229 177.5H376.554V181.1H374.229V190H370.479V181.1H368.804V177.5H370.479C370.479 174 372.404 171.9 376.554 172.15V175.75ZM379.806 176.4C378.581 176.4 377.556 175.375 377.556 174.15C377.556 172.925 378.581 171.9 379.806 171.9C381.031 171.9 382.056 172.925 382.056 174.15C382.056 175.375 381.031 176.4 379.806 176.4ZM377.931 190V177.5H381.681V190H377.931ZM384.425 190V171.75H388.175V190H384.425ZM394.269 185.25C394.744 186.55 395.894 187 397.269 187C398.294 187 399.169 186.6 399.669 186.05L402.669 187.775C401.444 189.475 399.594 190.35 397.219 190.35C392.944 190.35 390.294 187.475 390.294 183.75C390.294 180.025 392.994 177.15 396.944 177.15C400.594 177.15 403.294 179.975 403.294 183.75C403.294 184.275 403.244 184.775 403.144 185.25H394.269ZM394.194 182.45H399.569C399.169 181 398.044 180.475 396.919 180.475C395.494 180.475 394.544 181.175 394.194 182.45Z" fill="#0954B0"/>
<path d="M279.119 192.5H404.044V193.75H279.119V192.5Z" fill="#0954B0"/>
<path d="M7.137 256.566C7.137 257.763 12.303 256.965 12.303 260.85C12.303 263.265 10.203 264.294 7.935 264.294C5.835 264.294 4.239 263.496 3.42 261.795L6.15 260.241C6.423 261.039 7.011 261.48 7.935 261.48C8.691 261.48 9.069 261.249 9.069 260.829C9.069 259.674 3.903 260.283 3.903 256.65C3.903 254.361 5.835 253.206 8.019 253.206C9.72 253.206 11.232 253.962 12.114 255.453L9.426 256.902C9.132 256.356 8.712 255.978 8.019 255.978C7.473 255.978 7.137 256.188 7.137 256.566ZM20.6587 253.5H23.8087V264H20.6587V263.013C20.0917 263.79 19.0417 264.294 17.6557 264.294C15.5347 264.294 13.7287 262.782 13.7287 259.947V253.5H16.8787V259.485C16.8787 260.787 17.6977 261.396 18.7057 261.396C19.8607 261.396 20.6587 260.724 20.6587 259.233V253.5ZM32.3979 253.206C35.1489 253.206 37.4169 255.621 37.4169 258.75C37.4169 261.879 35.1489 264.294 32.3979 264.294C30.9909 264.294 29.9619 263.811 29.2689 263.013V268.2H26.1189V253.5H29.2689V254.487C29.9619 253.689 30.9909 253.206 32.3979 253.206ZM31.7679 261.312C33.2169 261.312 34.2669 260.325 34.2669 258.75C34.2669 257.175 33.2169 256.188 31.7679 256.188C30.3189 256.188 29.2689 257.175 29.2689 258.75C29.2689 260.325 30.3189 261.312 31.7679 261.312ZM45.4819 253.206C48.2329 253.206 50.5009 255.621 50.5009 258.75C50.5009 261.879 48.2329 264.294 45.4819 264.294C44.0749 264.294 43.0459 263.811 42.3529 263.013V268.2H39.2029V253.5H42.3529V254.487C43.0459 253.689 44.0749 253.206 45.4819 253.206ZM44.8519 261.312C46.3009 261.312 47.3509 260.325 47.3509 258.75C47.3509 257.175 46.3009 256.188 44.8519 256.188C43.4029 256.188 42.3529 257.175 42.3529 258.75C42.3529 260.325 43.4029 261.312 44.8519 261.312ZM57.3268 264.294C54.2398 264.294 51.7618 261.879 51.7618 258.75C51.7618 255.621 54.2398 253.206 57.3268 253.206C60.4138 253.206 62.8918 255.621 62.8918 258.75C62.8918 261.879 60.4138 264.294 57.3268 264.294ZM57.3268 261.228C58.6918 261.228 59.7418 260.241 59.7418 258.75C59.7418 257.259 58.6918 256.272 57.3268 256.272C55.9618 256.272 54.9118 257.259 54.9118 258.75C54.9118 260.241 55.9618 261.228 57.3268 261.228ZM67.8236 255.369C68.2436 253.962 69.6506 253.29 70.9736 253.29V256.86C69.6716 256.65 67.8236 257.175 67.8236 259.254V264H64.6736V253.5H67.8236V255.369ZM78.9066 256.524H76.7436V260.241C76.7436 261.144 77.5206 261.228 78.9066 261.144V264C74.7906 264.42 73.5936 263.181 73.5936 260.241V256.524H71.9136V253.5H73.5936V251.505L76.7436 250.56V253.5H78.9066V256.524ZM83.2991 260.01C83.6981 261.102 84.6641 261.48 85.8191 261.48C86.6801 261.48 87.4151 261.144 87.8351 260.682L90.3551 262.131C89.3261 263.559 87.7721 264.294 85.7771 264.294C82.1861 264.294 79.9601 261.879 79.9601 258.75C79.9601 255.621 82.2281 253.206 85.5461 253.206C88.6121 253.206 90.8801 255.579 90.8801 258.75C90.8801 259.191 90.8381 259.611 90.7541 260.01H83.2991ZM83.2361 257.658H87.7511C87.4151 256.44 86.4701 255.999 85.5251 255.999C84.3281 255.999 83.5301 256.587 83.2361 257.658ZM100.187 249.3H103.337V264H100.187V263.013C99.4942 263.811 98.4652 264.294 97.0582 264.294C94.3072 264.294 92.0392 261.879 92.0392 258.75C92.0392 255.621 94.3072 253.206 97.0582 253.206C98.4652 253.206 99.4942 253.689 100.187 254.487V249.3ZM97.6882 261.312C99.1372 261.312 100.187 260.325 100.187 258.75C100.187 257.175 99.1372 256.188 97.6882 256.188C96.2392 256.188 95.1892 257.175 95.1892 258.75C95.1892 260.325 96.2392 261.312 97.6882 261.312ZM116.673 252.03C115.497 251.925 114.72 252.282 114.72 253.5H116.673V256.524H114.72V264H111.57V256.524H110.163V253.5H111.57C111.57 250.56 113.187 248.796 116.673 249.006V252.03ZM122.562 264.294C119.475 264.294 116.997 261.879 116.997 258.75C116.997 255.621 119.475 253.206 122.562 253.206C125.649 253.206 128.127 255.621 128.127 258.75C128.127 261.879 125.649 264.294 122.562 264.294ZM122.562 261.228C123.927 261.228 124.977 260.241 124.977 258.75C124.977 257.259 123.927 256.272 122.562 256.272C121.197 256.272 120.147 257.259 120.147 258.75C120.147 260.241 121.197 261.228 122.562 261.228ZM133.059 255.369C133.479 253.962 134.886 253.29 136.209 253.29V256.86C134.907 256.65 133.059 257.175 133.059 259.254V264H129.909V253.5H133.059V255.369ZM149.441 253.206C151.856 253.206 153.431 254.928 153.431 257.553V264H150.281V257.826C150.281 256.776 149.777 256.104 148.769 256.104C147.719 256.104 147.131 256.839 147.131 258.078V264H143.981V257.826C143.981 256.776 143.477 256.104 142.469 256.104C141.419 256.104 140.831 256.839 140.831 258.078V264H137.681V253.5H140.831V254.466C141.314 253.752 142.238 253.206 143.645 253.206C144.884 253.206 145.808 253.71 146.396 254.592C146.984 253.752 147.95 253.206 149.441 253.206ZM163.208 253.5H166.358V264H163.208V263.013C162.515 263.811 161.486 264.294 160.079 264.294C157.328 264.294 155.06 261.879 155.06 258.75C155.06 255.621 157.328 253.206 160.079 253.206C161.486 253.206 162.515 253.689 163.208 254.487V253.5ZM160.709 261.312C162.158 261.312 163.208 260.325 163.208 258.75C163.208 257.175 162.158 256.188 160.709 256.188C159.26 256.188 158.21 257.175 158.21 258.75C158.21 260.325 159.26 261.312 160.709 261.312ZM174.822 256.524H172.659V260.241C172.659 261.144 173.436 261.228 174.822 261.144V264C170.706 264.42 169.509 263.181 169.509 260.241V256.524H167.829V253.5H169.509V251.505L172.659 250.56V253.5H174.822V256.524ZM179.485 256.566C179.485 257.763 184.651 256.965 184.651 260.85C184.651 263.265 182.551 264.294 180.283 264.294C178.183 264.294 176.587 263.496 175.768 261.795L178.498 260.241C178.771 261.039 179.359 261.48 180.283 261.48C181.039 261.48 181.417 261.249 181.417 260.829C181.417 259.674 176.251 260.283 176.251 256.65C176.251 254.361 178.183 253.206 180.367 253.206C182.068 253.206 183.58 253.962 184.462 255.453L181.774 256.902C181.48 256.356 181.06 255.978 180.367 255.978C179.821 255.978 179.485 256.188 179.485 256.566ZM187.906 257.154C186.814 257.154 185.911 256.251 185.911 255.159C185.911 254.067 186.814 253.164 187.906 253.164C188.998 253.164 189.901 254.067 189.901 255.159C189.901 256.251 188.998 257.154 187.906 257.154ZM187.906 264.294C186.814 264.294 185.911 263.391 185.911 262.299C185.911 261.207 186.814 260.304 187.906 260.304C188.998 260.304 189.901 261.207 189.901 262.299C189.901 263.391 188.998 264.294 187.906 264.294ZM201.709 264.294C199.378 264.294 197.698 263.307 196.732 261.438L199.651 259.758C200.113 260.577 200.596 261.018 201.73 261.018C203.2 261.018 203.641 260.178 203.641 259.275V249.3H207.001V259.275C207.001 262.509 204.733 264.294 201.709 264.294ZM214.985 249.3C217.883 249.3 220.13 251.547 220.13 254.34C220.13 257.133 217.883 259.38 214.985 259.38H212.78V264H209.42V249.3H214.985ZM214.985 256.23C216.014 256.23 216.77 255.411 216.77 254.34C216.77 253.269 216.014 252.45 214.985 252.45H212.78V256.23H214.985ZM236.257 255.81V257.07C236.257 261.564 233.128 264.294 229.012 264.294C224.392 264.294 221.074 260.892 221.074 256.671C221.074 252.408 224.455 249.006 228.781 249.006C231.595 249.006 233.968 250.392 235.207 252.366L232.351 254.004C231.742 253.038 230.419 252.282 228.76 252.282C226.282 252.282 224.434 254.109 224.434 256.692C224.434 259.191 226.198 261.018 229.054 261.018C231.007 261.018 232.288 260.157 232.813 258.75H228.886V255.81H236.257ZM240.991 260.745L239.311 266.94H236.791L237.631 260.745H240.991ZM254.012 249.3C256.91 249.3 259.157 251.547 259.157 254.34C259.157 257.133 256.91 259.38 254.012 259.38H251.807V264H248.447V249.3H254.012ZM254.012 256.23C255.041 256.23 255.797 255.411 255.797 254.34C255.797 253.269 255.041 252.45 254.012 252.45H251.807V256.23H254.012ZM269.023 249.3H272.383V264H269.863L264.193 256.02V264H260.833V249.3H263.353L269.023 257.28V249.3ZM289.455 255.81V257.07C289.455 261.564 286.326 264.294 282.21 264.294C277.59 264.294 274.272 260.892 274.272 256.671C274.272 252.408 277.653 249.006 281.979 249.006C284.793 249.006 287.166 250.392 288.405 252.366L285.549 254.004C284.94 253.038 283.617 252.282 281.958 252.282C279.48 252.282 277.632 254.109 277.632 256.692C277.632 259.191 279.396 261.018 282.252 261.018C284.205 261.018 285.486 260.157 286.011 258.75H282.084V255.81H289.455ZM294.188 260.745L292.508 266.94H289.988L290.828 260.745H294.188ZM307.209 249.3C310.107 249.3 312.354 251.547 312.354 254.34C312.354 257.133 310.107 259.38 307.209 259.38H305.004V264H301.644V249.3H307.209ZM307.209 256.23C308.238 256.23 308.994 255.411 308.994 254.34C308.994 253.269 308.238 252.45 307.209 252.45H305.004V256.23H307.209ZM319.911 249.3C323.964 249.3 327.051 252.492 327.051 256.65C327.051 260.808 323.964 264 319.911 264H314.031V249.3H319.911ZM319.911 260.766C322.221 260.766 323.817 259.17 323.817 256.65C323.817 254.13 322.221 252.534 319.911 252.534H317.391V260.766H319.911ZM337.865 252.534H332.3V255.369H337.76V258.603H332.3V264H328.94V249.3H337.865V252.534ZM342.689 260.745L341.009 266.94H338.489L339.329 260.745H342.689ZM355.29 264.294C352.203 264.294 350.229 262.824 349.41 260.661L352.308 258.981C352.833 260.199 353.736 261.018 355.395 261.018C356.991 261.018 357.39 260.388 357.39 259.821C357.39 258.918 356.55 258.561 354.345 257.952C352.161 257.343 350.019 256.293 350.019 253.479C350.019 250.644 352.413 249.006 354.954 249.006C357.369 249.006 359.259 250.161 360.33 252.324L357.495 253.983C356.991 252.933 356.298 252.282 354.954 252.282C353.904 252.282 353.379 252.807 353.379 253.395C353.379 254.067 353.736 254.529 356.025 255.222C358.251 255.894 360.75 256.671 360.75 259.779C360.75 262.614 358.482 264.294 355.29 264.294ZM365.547 264L360.759 249.3H364.434L367.689 260.115L370.944 249.3H374.619L369.831 264H365.547ZM389.799 255.81V257.07C389.799 261.564 386.67 264.294 382.554 264.294C377.934 264.294 374.616 260.892 374.616 256.671C374.616 252.408 377.997 249.006 382.323 249.006C385.137 249.006 387.51 250.392 388.749 252.366L385.893 254.004C385.284 253.038 383.961 252.282 382.302 252.282C379.824 252.282 377.976 254.109 377.976 256.692C377.976 259.191 379.74 261.018 382.596 261.018C384.549 261.018 385.83 260.157 386.355 258.75H382.428V255.81H389.799ZM15.915 291.206C18.33 291.206 19.905 292.928 19.905 295.553V302H16.755V295.826C16.755 294.776 16.251 294.104 15.243 294.104C14.193 294.104 13.605 294.839 13.605 296.078V302H10.455V295.826C10.455 294.776 9.951 294.104 8.943 294.104C7.893 294.104 7.305 294.839 7.305 296.078V302H4.155V291.5H7.305V292.466C7.788 291.752 8.712 291.206 10.119 291.206C11.358 291.206 12.282 291.71 12.87 292.592C13.458 291.752 14.424 291.206 15.915 291.206ZM29.6813 291.5H32.8313V302H29.6813V301.013C28.9883 301.811 27.9593 302.294 26.5523 302.294C23.8013 302.294 21.5333 299.879 21.5333 296.75C21.5333 293.621 23.8013 291.206 26.5523 291.206C27.9593 291.206 28.9883 291.689 29.6813 292.487V291.5ZM27.1823 299.312C28.6313 299.312 29.6813 298.325 29.6813 296.75C29.6813 295.175 28.6313 294.188 27.1823 294.188C25.7333 294.188 24.6833 295.175 24.6833 296.75C24.6833 298.325 25.7333 299.312 27.1823 299.312ZM45.1173 302H41.5053L39.5523 299.228L37.5993 302H33.9873L37.7463 296.666L34.1133 291.5H37.7253L39.5523 294.104L41.3793 291.5H44.9913L41.3583 296.666L45.1173 302ZM47.853 290.576C46.824 290.576 45.963 289.715 45.963 288.686C45.963 287.657 46.824 286.796 47.853 286.796C48.882 286.796 49.743 287.657 49.743 288.686C49.743 289.715 48.882 290.576 47.853 290.576ZM46.278 302V291.5H49.428V302H46.278ZM63.4931 291.206C65.9081 291.206 67.4831 292.928 67.4831 295.553V302H64.3331V295.826C64.3331 294.776 63.8291 294.104 62.8211 294.104C61.7711 294.104 61.1831 294.839 61.1831 296.078V302H58.0331V295.826C58.0331 294.776 57.5291 294.104 56.5211 294.104C55.4711 294.104 54.8831 294.839 54.8831 296.078V302H51.7331V291.5H54.8831V292.466C55.3661 291.752 56.2901 291.206 57.6971 291.206C58.9361 291.206 59.8601 291.71 60.4481 292.592C61.0361 291.752 62.0021 291.206 63.4931 291.206ZM76.4194 291.5H79.5694V302H76.4194V301.013C75.8524 301.79 74.8024 302.294 73.4164 302.294C71.2954 302.294 69.4894 300.782 69.4894 297.947V291.5H72.6394V297.485C72.6394 298.787 73.4584 299.396 74.4664 299.396C75.6214 299.396 76.4194 298.724 76.4194 297.233V291.5ZM93.6396 291.206C96.0546 291.206 97.6296 292.928 97.6296 295.553V302H94.4796V295.826C94.4796 294.776 93.9756 294.104 92.9676 294.104C91.9176 294.104 91.3296 294.839 91.3296 296.078V302H88.1796V295.826C88.1796 294.776 87.6756 294.104 86.6676 294.104C85.6176 294.104 85.0296 294.839 85.0296 296.078V302H81.8796V291.5H85.0296V292.466C85.5126 291.752 86.4366 291.206 87.8436 291.206C89.0826 291.206 90.0066 291.71 90.5946 292.592C91.1826 291.752 92.1486 291.206 93.6396 291.206ZM108.015 294.566C108.015 295.763 113.181 294.965 113.181 298.85C113.181 301.265 111.081 302.294 108.813 302.294C106.713 302.294 105.117 301.496 104.298 299.795L107.028 298.241C107.301 299.039 107.889 299.48 108.813 299.48C109.569 299.48 109.947 299.249 109.947 298.829C109.947 297.674 104.781 298.283 104.781 294.65C104.781 292.361 106.713 291.206 108.897 291.206C110.598 291.206 112.11 291.962 112.992 293.453L110.304 294.902C110.01 294.356 109.59 293.978 108.897 293.978C108.351 293.978 108.015 294.188 108.015 294.566ZM116.329 290.576C115.3 290.576 114.439 289.715 114.439 288.686C114.439 287.657 115.3 286.796 116.329 286.796C117.358 286.796 118.219 287.657 118.219 288.686C118.219 289.715 117.358 290.576 116.329 290.576ZM114.754 302V291.5H117.904V302H114.754ZM124.115 299.06H128.294V302H119.894V299.9L123.863 294.44H120.104V291.5H128.084V293.6L124.115 299.06ZM132.354 298.01C132.753 299.102 133.719 299.48 134.874 299.48C135.735 299.48 136.47 299.144 136.89 298.682L139.41 300.131C138.381 301.559 136.827 302.294 134.832 302.294C131.241 302.294 129.015 299.879 129.015 296.75C129.015 293.621 131.283 291.206 134.601 291.206C137.667 291.206 139.935 293.579 139.935 296.75C139.935 297.191 139.893 297.611 139.809 298.01H132.354ZM132.291 295.658H136.806C136.47 294.44 135.525 293.999 134.58 293.999C133.383 293.999 132.585 294.587 132.291 295.658ZM143.506 295.154C142.414 295.154 141.511 294.251 141.511 293.159C141.511 292.067 142.414 291.164 143.506 291.164C144.598 291.164 145.501 292.067 145.501 293.159C145.501 294.251 144.598 295.154 143.506 295.154ZM143.506 302.294C142.414 302.294 141.511 301.391 141.511 300.299C141.511 299.207 142.414 298.304 143.506 298.304C144.598 298.304 145.501 299.207 145.501 300.299C145.501 301.391 144.598 302.294 143.506 302.294ZM155.755 287.3H158.695V302H155.335V290.849L152.731 291.563L151.912 288.686L155.755 287.3ZM166.787 302.294C162.986 302.294 160.802 299.186 160.802 294.65C160.802 290.114 162.986 287.006 166.787 287.006C170.588 287.006 172.772 290.114 172.772 294.65C172.772 299.186 170.588 302.294 166.787 302.294ZM166.787 299.018C168.551 299.018 169.412 297.485 169.412 294.65C169.412 291.815 168.551 290.282 166.787 290.282C165.023 290.282 164.162 291.815 164.162 294.65C164.162 297.485 165.023 299.018 166.787 299.018ZM189.359 287.3V302H185.999V293.453L182.198 299.69H181.82L178.019 293.453V302H174.659V287.3H178.019L182.009 293.831L185.999 287.3H189.359ZM201 294.377C202.092 295.07 202.806 296.204 202.806 297.695C202.806 300.299 200.685 302 198.06 302H191.886V287.3H197.64C200.202 287.3 202.281 288.959 202.281 291.5C202.281 292.718 201.798 293.684 201 294.377ZM197.64 290.45H195.246V293.054H197.64C198.396 293.054 198.921 292.508 198.921 291.752C198.921 290.996 198.417 290.45 197.64 290.45ZM198.06 298.85C198.9 298.85 199.446 298.262 199.446 297.443C199.446 296.624 198.9 296.036 198.06 296.036H195.246V298.85H198.06Z" fill="black"/>
</svg>
