<svg width="27" height="20" viewBox="0 0 27 20" fill="none" xmlns="http://www.w3.org/2000/svg">
<path d="M5.79233 0.390742C5.9163 0.514573 6.01465 0.661623 6.08175 0.823488C6.14885 0.985352 6.18338 1.15885 6.18338 1.33408C6.18338 1.5093 6.14885 1.6828 6.08175 1.84466C6.01465 2.00653 5.9163 2.15358 5.79233 2.27741C3.79158 4.27849 2.6676 6.99235 2.6676 9.82207C2.6676 12.6518 3.79158 15.3657 5.79233 17.3667C5.91968 17.4897 6.02126 17.6369 6.09114 17.7995C6.16101 17.9622 6.1978 18.1372 6.19934 18.3142C6.20087 18.4912 6.16714 18.6668 6.1001 18.8307C6.03305 18.9945 5.93405 19.1434 5.80886 19.2686C5.68367 19.3938 5.5348 19.4928 5.37094 19.5598C5.20708 19.6269 5.0315 19.6606 4.85447 19.6591C4.67743 19.6575 4.50247 19.6208 4.33979 19.5509C4.17712 19.481 4.03 19.3794 3.907 19.2521C-1.30233 14.0441 -1.30233 5.59874 3.907 0.390742C4.15704 0.140781 4.49611 0.000359853 4.84967 0.000359853C5.20322 0.000359853 5.5423 0.140781 5.79233 0.390742ZM22.7683 0.390742C27.9763 5.60007 27.9763 14.0441 22.7683 19.2521C22.5183 19.5023 22.1792 19.6429 21.8255 19.643C21.4718 19.6431 21.1325 19.5028 20.8823 19.2527C20.6321 19.0027 20.4915 18.6636 20.4914 18.3099C20.4913 17.9562 20.6317 17.6169 20.8817 17.3667C22.8824 15.3657 24.0064 12.6518 24.0064 9.82207C24.0064 6.99235 22.8824 4.27849 20.8817 2.27741C20.6315 2.02722 20.4909 1.68789 20.4909 1.33408C20.4909 0.980257 20.6315 0.64093 20.8817 0.390742C21.1319 0.140554 21.4712 6.97461e-09 21.825 0C22.1788 -6.97461e-09 22.5181 0.140554 22.7683 0.390742ZM9.74833 4.22274C9.9983 4.47278 10.1387 4.81186 10.1387 5.16541C10.1387 5.51896 9.9983 5.85804 9.74833 6.10807C9.26294 6.59342 8.8779 7.16963 8.6152 7.80379C8.3525 8.43796 8.21729 9.11765 8.21729 9.80407C8.21729 10.4905 8.3525 11.1702 8.6152 11.8044C8.8779 12.4385 9.26294 13.0147 9.74833 13.5001C9.87213 13.624 9.97031 13.771 10.0373 13.9328C10.1042 14.0947 10.1387 14.2681 10.1386 14.4432C10.1385 14.6183 10.104 14.7917 10.0369 14.9535C9.96983 15.1153 9.87155 15.2623 9.74767 15.3861C9.62379 15.5099 9.47674 15.608 9.31491 15.675C9.15309 15.742 8.97966 15.7764 8.80453 15.7763C8.6294 15.7763 8.45599 15.7417 8.29422 15.6746C8.13244 15.6076 7.98546 15.5093 7.86167 15.3854C6.38144 13.9051 5.54986 11.8975 5.54986 9.80407C5.54986 7.71068 6.38144 5.70302 7.86167 4.22274C7.9855 4.09877 8.13255 4.00043 8.29441 3.93333C8.45628 3.86623 8.62978 3.83169 8.805 3.83169C8.98022 3.83169 9.15372 3.86623 9.31559 3.93333C9.47745 4.00043 9.6245 4.09877 9.74833 4.22274ZM19.0257 4.22274C20.5059 5.70302 21.3375 7.71068 21.3375 9.80407C21.3375 11.8975 20.5059 13.9051 19.0257 15.3854C18.7742 15.6283 18.4374 15.7627 18.0878 15.7596C17.7382 15.7566 17.4038 15.6164 17.1566 15.3692C16.9094 15.122 16.7691 14.7875 16.7661 14.4379C16.7631 14.0883 16.8975 13.7515 17.1403 13.5001C17.6257 13.0147 18.0108 12.4385 18.2735 11.8044C18.5362 11.1702 18.6714 10.4905 18.6714 9.80407C18.6714 9.11765 18.5362 8.43796 18.2735 7.80379C18.0108 7.16963 17.6257 6.59342 17.1403 6.10807C16.8975 5.85661 16.7631 5.5198 16.7661 5.17021C16.7691 4.82061 16.9094 4.48619 17.1566 4.23898C17.4038 3.99177 17.7382 3.85155 18.0878 3.84851C18.4374 3.84547 18.7742 3.97986 19.0257 4.22274ZM13.4443 7.91607C13.9748 7.91607 14.4835 8.12679 14.8585 8.50186C15.2336 8.87693 15.4443 9.38564 15.4443 9.91607C15.4443 10.4465 15.2336 10.9552 14.8585 11.3303C14.4835 11.7054 13.9748 11.9161 13.4443 11.9161C12.9139 11.9161 12.4052 11.7054 12.0301 11.3303C11.655 10.9552 11.4443 10.4465 11.4443 9.91607C11.4443 9.38564 11.655 8.87693 12.0301 8.50186C12.4052 8.12679 12.9139 7.91607 13.4443 7.91607Z" fill="black"/>
</svg>
