<svg width="17" height="13" viewBox="0 0 17 13" fill="none" xmlns="http://www.w3.org/2000/svg">
<path d="M4.74833 1.22274C4.9983 1.47278 5.13872 1.81186 5.13872 2.16541C5.13872 2.51896 4.9983 2.85804 4.74833 3.10807C4.26294 3.59342 3.8779 4.16963 3.6152 4.80379C3.3525 5.43796 3.21729 6.11765 3.21729 6.80407C3.21729 7.49049 3.3525 8.17019 3.6152 8.80436C3.8779 9.43852 4.26294 10.0147 4.74833 10.5001C4.87213 10.624 4.97031 10.771 5.03727 10.9328C5.10423 11.0947 5.13867 11.2681 5.1386 11.4432C5.13854 11.6183 5.10399 11.7917 5.03691 11.9535C4.96983 12.1153 4.87155 12.2623 4.74767 12.3861C4.62379 12.5099 4.47674 12.608 4.31491 12.675C4.15309 12.742 3.97966 12.7764 3.80453 12.7763C3.6294 12.7763 3.45599 12.7417 3.29422 12.6746C3.13244 12.6076 2.98546 12.5093 2.86167 12.3854C1.38144 10.9051 0.54986 8.89747 0.54986 6.80407C0.54986 4.71068 1.38144 2.70302 2.86167 1.22274C2.9855 1.09877 3.13255 1.00043 3.29441 0.933328C3.45628 0.866229 3.62978 0.831693 3.805 0.831693C3.98022 0.831693 4.15372 0.866229 4.31559 0.933328C4.47745 1.00043 4.6245 1.09877 4.74833 1.22274ZM14.0257 1.22274C15.5059 2.70302 16.3375 4.71068 16.3375 6.80407C16.3375 8.89747 15.5059 10.9051 14.0257 12.3854C13.7742 12.6283 13.4374 12.7627 13.0878 12.7596C12.7382 12.7566 12.4038 12.6164 12.1566 12.3692C11.9094 12.122 11.7691 11.7875 11.7661 11.4379C11.7631 11.0883 11.8975 10.7515 12.1403 10.5001C12.6257 10.0147 13.0108 9.43852 13.2735 8.80436C13.5362 8.17019 13.6714 7.49049 13.6714 6.80407C13.6714 6.11765 13.5362 5.43796 13.2735 4.80379C13.0108 4.16963 12.6257 3.59342 12.1403 3.10807C11.8975 2.85661 11.7631 2.5198 11.7661 2.17021C11.7691 1.82061 11.9094 1.48619 12.1566 1.23898C12.4038 0.991773 12.7382 0.851547 13.0878 0.848509C13.4374 0.845471 13.7742 0.979864 14.0257 1.22274ZM8.44433 4.91607C8.97477 4.91607 9.48348 5.12679 9.85855 5.50186C10.2336 5.87693 10.4443 6.38564 10.4443 6.91607C10.4443 7.44651 10.2336 7.95522 9.85855 8.33029C9.48348 8.70536 8.97477 8.91607 8.44433 8.91607C7.9139 8.91607 7.40519 8.70536 7.03012 8.33029C6.65505 7.95522 6.44433 7.44651 6.44433 6.91607C6.44433 6.38564 6.65505 5.87693 7.03012 5.50186C7.40519 5.12679 7.9139 4.91607 8.44433 4.91607Z" fill="black"/>
</svg>
