<svg width="17" height="13" viewBox="0 0 17 13" fill="none" xmlns="http://www.w3.org/2000/svg">
<path d="M4.74833 0.881921C4.9983 1.13196 5.13872 1.47104 5.13872 1.82459C5.13872 2.17814 4.9983 2.51722 4.74833 2.76725C4.26294 3.2526 3.8779 3.82881 3.6152 4.46297C3.3525 5.09714 3.21729 5.77683 3.21729 6.46325C3.21729 7.14967 3.3525 7.82937 3.6152 8.46354C3.8779 9.0977 4.26294 9.67391 4.74833 10.1593C4.87213 10.2831 4.97031 10.4302 5.03727 10.592C5.10423 10.7538 5.13867 10.9273 5.1386 11.1024C5.13854 11.2775 5.10399 11.4509 5.03691 11.6127C4.96983 11.7745 4.87155 11.9215 4.74767 12.0453C4.62379 12.169 4.47674 12.2672 4.31491 12.3342C4.15309 12.4012 3.97966 12.4356 3.80453 12.4355C3.6294 12.4355 3.45599 12.4009 3.29422 12.3338C3.13244 12.2668 2.98546 12.1685 2.86167 12.0446C1.38144 10.5643 0.54986 8.55665 0.54986 6.46325C0.54986 4.36986 1.38144 2.3622 2.86167 0.881921C2.9855 0.757952 3.13255 0.659607 3.29441 0.592508C3.45628 0.525409 3.62978 0.490872 3.805 0.490872C3.98022 0.490872 4.15372 0.525409 4.31559 0.592508C4.47745 0.659607 4.6245 0.757952 4.74833 0.881921ZM14.0257 0.881921C15.5059 2.3622 16.3375 4.36986 16.3375 6.46325C16.3375 8.55665 15.5059 10.5643 14.0257 12.0446C13.7742 12.2875 13.4374 12.4219 13.0878 12.4188C12.7382 12.4158 12.4038 12.2756 12.1566 12.0283C11.9094 11.7811 11.7691 11.4467 11.7661 11.0971C11.7631 10.7475 11.8975 10.4107 12.1403 10.1593C12.6257 9.67391 13.0108 9.0977 13.2735 8.46354C13.5362 7.82937 13.6714 7.14967 13.6714 6.46325C13.6714 5.77683 13.5362 5.09714 13.2735 4.46297C13.0108 3.82881 12.6257 3.2526 12.1403 2.76725C11.8975 2.51578 11.7631 2.17898 11.7661 1.82939C11.7691 1.47979 11.9094 1.14537 12.1566 0.898163C12.4038 0.650953 12.7382 0.510727 13.0878 0.507689C13.4374 0.504651 13.7742 0.639043 14.0257 0.881921ZM8.44433 4.57525C8.97477 4.57525 9.48348 4.78597 9.85855 5.16104C10.2336 5.53611 10.4443 6.04482 10.4443 6.57525C10.4443 7.10569 10.2336 7.6144 9.85855 7.98947C9.48348 8.36454 8.97477 8.57525 8.44433 8.57525C7.9139 8.57525 7.40519 8.36454 7.03012 7.98947C6.65505 7.6144 6.44433 7.10569 6.44433 6.57525C6.44433 6.04482 6.65505 5.53611 7.03012 5.16104C7.40519 4.78597 7.9139 4.57525 8.44433 4.57525Z" fill="black"/>
</svg>
